<svg id="Group_243" data-name="Group 243" xmlns="http://www.w3.org/2000/svg" xmlns:xlink="http://www.w3.org/1999/xlink" width="101.749" height="99.015" viewBox="0 0 101.749 99.015">
  <defs>
    <clipPath id="clip-path">
      <path id="Path_1398" data-name="Path 1398" d="M0,43.285H101.749V-55.73H0Z" transform="translate(0 55.73)" fill="none"/>
    </clipPath>
  </defs>
  <g id="Group_233" data-name="Group 233" transform="translate(0 0)" clip-path="url(#clip-path)">
    <g id="Group_232" data-name="Group 232" transform="translate(0.001 -0.001)">
      <path id="Path_1397" data-name="Path 1397" d="M44.363,22.294l-.06-.066-.11-.121c-4.4-4.884-9.82-10.721-14.142-15.336a2.879,2.879,0,0,0,1.409-1.007c.1-.117.1-.149.107-.24V-17.531A2.174,2.174,0,0,0,29.391-19.7H18.841a2.174,2.174,0,0,0-2.175,2.173v.926s.725,10.362.819,9.928c.02.158.043.309.062.462L-4.21-28.066l-.009-.009a2.161,2.161,0,0,0-3.056.009l-49.213,49.5a2.182,2.182,0,0,0-.631,1.532,2.171,2.171,0,0,0,2.171,2.171l8.827,0a6.969,6.969,0,0,0,.965-.176,9.152,9.152,0,0,0,3.038-1.308,27.034,27.034,0,0,0-.727,4.449c-.663,5.065-1.109,12.291-1.109,12.291l-.009,23.927v0A2.165,2.165,0,0,0-41.8,66.486l21.027.007a1.355,1.355,0,0,0,.373-.176c2.493-1.871.984-3.449-.064-4.063a.422.422,0,0,0-.309-.107H-39.623V41.015s-.725-13.3-.821-12.746c-.291-3.012-.725-5.414-1.213-5.387-.018-.908-2.045-1.62-3.664-1.986a2.4,2.4,0,0,0-.8-.107h-3.6L-5.74-23.461,18.3.674s16.358,15.747,22.015,21.1c-6.382.3-10.848.707-10,1.151a2.586,2.586,0,0,0-1.958,1.414.424.424,0,0,0-.107.311v37.5H25.322s-13.43.725-12.869.819c-5.382.517-8.851,1.476-.171,2.4C17.4,66.029,24.7,66.475,24.7,66.475l5.721,0h0a2.158,2.158,0,0,0,2.155-2.159l.016-39.672a1.383,1.383,0,0,0-.176-.377,3.768,3.768,0,0,0-1.222-1.123c1.663.279,5.526.569,12.375.855a1.022,1.022,0,0,0,.8-1.709M27.22,3.756c-2.823-3-4.719-5-4.719-5L19.495-4.26c.131-.6.263-1.336.393-2.285.521-3.1.9-7.194,1.045-8.828l6.3,0ZM11.866,41.225a10.508,10.508,0,0,0,.391-2.168l.107-1.151,0-1.091c-.057-.695-.02-1.272-.151-2.07a18.08,18.08,0,0,0-3.257-8.356A18.347,18.347,0,0,0-6.262,18.711a18.408,18.408,0,0,0-13.48,6.263,18.262,18.262,0,0,0-4.381,9.759,24.893,24.893,0,0,0-.156,2.962c.043.943.091,1.054.085,1.125,0,0,.053.41.146,1.13a26.846,26.846,0,0,0,.922,3.216,55.808,55.808,0,0,0,3.895,8.32A114.663,114.663,0,0,0-12.72,61.948c3.01,4.378,5.769,7.766,6.563,8.3.146.092.2.06.2-.037.6.409,1.942-.506,2.9-1.379a1.758,1.758,0,0,0,.418-.46c.156-.272,3.454-4.9,7.682-12.144a75.278,75.278,0,0,0,6.242-13.005,14.884,14.884,0,0,0,.577-2M8.84,38.352a15.09,15.09,0,0,1-.73,3.441A71.156,71.156,0,0,1,2.133,54.33c-4.184,7.185-7.5,11.826-7.64,12.082a5.3,5.3,0,0,0-.3.684,7.16,7.16,0,0,0-.449,2.3c-.6-1.226-2.084-3.767-4.667-8.2a152.2,152.2,0,0,1-7.206-14.048,45.737,45.737,0,0,1-2-5.446c-.3-1.256-.473-2-.473-2a5.96,5.96,0,0,1-.117-.954c-.025-.279-.059-.624-.1-1.027-.011-.487.009-.986.043-1.512a14.627,14.627,0,0,1,3.051-8.24,14.78,14.78,0,0,1,10.8-5.758A14.814,14.814,0,0,1,5.8,27.967a14.506,14.506,0,0,1,2.887,6.675,11.1,11.1,0,0,1,.183,1.88l.025.506,0,.418a5.329,5.329,0,0,1-.055.906m-14.965-9.9a8.978,8.978,0,0,0-5.579,2.1,8.933,8.933,0,0,0-2.521,3.479A7.616,7.616,0,0,0-14.7,35.6a10.828,10.828,0,0,0-.082,1.874c.025.217.053.451.082.7.057.32.121.679.2,1.014a8.7,8.7,0,0,0,.768,1.9,7.678,7.678,0,0,0,3.665,3.452c2.015.922,3.816.576,4.108.261a1.848,1.848,0,0,0,1.118,1.329.43.43,0,0,0,.3.043,8.051,8.051,0,0,0,1.789-.483,8.9,8.9,0,0,0,3.6-2.56,9,9,0,0,0,2.109-5.721A8.977,8.977,0,0,0,.321,31.03a8.938,8.938,0,0,0-6.446-2.578m4.36,12.394a5.474,5.474,0,0,1-2.223,1.6,4.5,4.5,0,0,1-1.046.288.671.671,0,0,0-.151.169,2.469,2.469,0,0,0-.807,1.622,1.612,1.612,0,0,0-.5-.277,11.28,11.28,0,0,1-2.532-1.317,6.544,6.544,0,0,1-2.416-3.994,5.807,5.807,0,0,1-.075-.865,5,5,0,0,1,.039-.81,5.307,5.307,0,0,1,.117-.645,4.82,4.82,0,0,1,.231-.99,5.454,5.454,0,0,1,1.446-2.237,5.374,5.374,0,0,1,3.429-1.457,5.432,5.432,0,0,1,4,1.457A5.4,5.4,0,0,1-.513,37.352a5.563,5.563,0,0,1-1.253,3.495" transform="translate(57.118 28.704)" fill="#595b60"/>
    </g>
  </g>
</svg>
