<svg id="Group_234" data-name="Group 234" xmlns="http://www.w3.org/2000/svg" xmlns:xlink="http://www.w3.org/1999/xlink" width="111.043" height="102.775" viewBox="0 0 111.043 102.775">
  <defs>
    <clipPath id="clip-path">
      <path id="Path_1400" data-name="Path 1400" d="M0,46.924H111.043V-55.851H0Z" transform="translate(0 55.851)" fill="none"/>
    </clipPath>
  </defs>
  <g id="Group_235" data-name="Group 235" transform="translate(0 0)" clip-path="url(#clip-path)">
    <g id="Group_234-2" data-name="Group 234" transform="translate(0 -0.001)">
      <path id="Path_1399" data-name="Path 1399" d="M21,16.818a15.549,15.549,0,0,1,3.872-1.255,13.991,13.991,0,0,1,1.651-.217.951.951,0,0,0,.282-.2c1.982-2.138.865-3.794-.342-4.405a.412.412,0,0,0-.322-.1,17.322,17.322,0,0,0-2.107.278A20.341,20.341,0,0,0,19.077,12.5,20.778,20.778,0,0,0,8.285,38.526a21.323,21.323,0,0,0,2.28,4.514l1.15,1.537a20.216,20.216,0,0,0,5.237,4.078,16.323,16.323,0,0,0,5.762,1.991c2.606.425,4.729-.029,5.127-.449.206-.226.006-.466-.7-.754s-1.914-.578-3.621-1.283a19.851,19.851,0,0,1-5.585-3.645,16.128,16.128,0,0,1-2.254-2.55,12.084,12.084,0,0,1-.935-1.183,15.86,15.86,0,0,1-1.9-3.48A16.1,16.1,0,0,1,21,16.818m6.65,59.139L18.822,57.309a2.375,2.375,0,0,0-2.931-1.215L-3.956,63.186,3.136,43.34a2.377,2.377,0,0,0-1.215-2.931L-17.126,31.39l19.048-9.02a2.373,2.373,0,0,0,1.215-2.93L-3.4,1.145S-3.658.47-4.094-.688C2.271,1.447,10.19,4.1,16.106,6.082l.075.026A1.682,1.682,0,0,0,18.244,5.2C20.5.146,22.049-3.353,21.779-2.856,28.7-18.775,32.538-29.33,19.653-4.468L15.979,2.575l-23.083-9a2.215,2.215,0,0,0-1.5-.037,2.212,2.212,0,0,0-1.4,2.8l.035.107L-8.514.821l6.5,18.2L-23.651,29.266a2.358,2.358,0,0,0-1.119,1.119,2.351,2.351,0,0,0,1.119,3.128L-2.022,43.759-10.078,66.3a2.369,2.369,0,0,0,0,1.586,2.358,2.358,0,0,0,3.012,1.424l22.533-8.047,7.915,16.72a10.232,10.232,0,0,0,.692,1.012c5.311,6.465,4.759,1.292,3.9-2.078a3.4,3.4,0,0,0-.326-.957M85.824,54.539c-.048-.16-.077-.177-.156-.225l-15.98-9.228,3.472-.931S81.507,41.1,81.122,41.1c3.281-1.461,5.219-3.06-.567-2.552-3.443.178-8.213.955-8.213.955l-8.424,2.251c-5.046-2.915-8.98-5.186-8.98-5.186s-9.615-4.643-9.28-4.332c-.74-.305-1.441-.572-2.059-.773v-.493c.508-.169,1.086-.379,1.778-.653,3.872-1.4,9.124-3.877,9.124-3.877l9.392-5.417,18.571,4.987a.815.815,0,0,0,.289-.121,3.087,3.087,0,0,0,1.1-4.277c-.068-.138-.094-.145-.167-.166L69.669,17.693c7.826-4.512,15.79-9.105,16.006-9.23a.969.969,0,0,0,.162-.315c.712-2.758-1.192-3.64-2.252-3.8-.162-.039-.191-.02-.272.024L67.327,13.6l.931-3.478S69.787,1.369,69.592,1.7c.375-3.57-.04-6.049-2.492-.784-1.568,3.071-3.279,7.591-3.279,7.591L61.56,16.933l-8.982,5.184s-8.827,6.006-8.391,5.874c-.2.155-.4.309-.587.46V9.019s-.061-1.612-.147-3.9A26.462,26.462,0,0,0,47,3.162L57.583-7.4a.607.607,0,0,0-.048-.224A5.447,5.447,0,0,0,54.4-10.732c-.116-.046-.125-.035-.155-.009L43.819-.313s-.236.339-.547.791c-.23-5.811-.506-12.368-.563-11.865-.561-8.531-1.606-14.031-2.611-.269-.72,8.111-1.2,19.679-1.2,19.679s-.02,70.988-.02,71.969a2.72,2.72,0,0,0,.191.594c2.033,3.993,3.75,1.577,4.418-.1a.9.9,0,0,0,.116-.493V62.871l6.794,6.792s3.688,2.574,3.631,2.37c1.651.858,3.2.927,1.884-1.807a25.392,25.392,0,0,0-2.041-3.743L43.6,56.192V33.913c.2.169.4.333.637.519,3.152,2.652,7.918,5.962,7.918,5.962l9.392,5.43L66.515,64.4a.82.82,0,0,0,.248.19,3.089,3.089,0,0,0,4.256-1.185c.085-.127.077-.153.059-.228L67.319,49.162c7.817,4.521,15.77,9.12,15.986,9.243a.951.951,0,0,0,.353-.017c2.746-.762,2.558-2.852,2.166-3.85" transform="translate(24.996 20.017)" fill="#595b60"/>
    </g>
  </g>
</svg>
