<svg id="Group_241" data-name="Group 241" xmlns="http://www.w3.org/2000/svg" xmlns:xlink="http://www.w3.org/1999/xlink" width="85.849" height="106.818" viewBox="0 0 85.849 106.818">
  <defs>
    <clipPath id="clip-path">
      <path id="Path_1394" data-name="Path 1394" d="M0,39.164H85.849V-67.654H0Z" transform="translate(0 67.654)" fill="none"/>
    </clipPath>
  </defs>
  <g id="Group_229" data-name="Group 229" transform="translate(0 0)" clip-path="url(#clip-path)">
    <g id="Group_228" data-name="Group 228" transform="translate(0 0)">
      <path id="Path_1393" data-name="Path 1393" d="M0,9.423V78.63c0,.748,0,1.509.035,2.455a9.981,9.981,0,0,0,1.508,4.666,10.135,10.135,0,0,0,8.218,4.781l15.593.009a2.192,2.192,0,0,0,2.193-2.192V85.609s-.455-5.423-1.127-9.227c-.1-.7-.205-1.277-.308-1.775h49.8a2.166,2.166,0,0,0,.854-.193,10.638,10.638,0,0,0,2.067-.469,2.925,2.925,0,0,0,.444-.076,10.186,10.186,0,0,0,6.549-9.134,9.856,9.856,0,0,0-1.124-4.958c.114-1.148.218-2.449.308-3.845.1.849.834-19.466.834-19.466V-3.308Q85.84-4.9,85.831-6.467a10.128,10.128,0,0,0-.848-3.731,10.15,10.15,0,0,0-4.992-5.109,10.372,10.372,0,0,0-3.257-.913c-1.2-.088-1.884-.044-2.714-.055H63.042a.871.871,0,0,0-.471.107c-.958.376-2.144,1.105-2.144,2.035-.527-.5-1,3.774-1.31,9.235a26.116,26.116,0,0,0-.156,2.7L27.051-3.013H11.227a13.091,13.091,0,0,0-3.715.358A10.148,10.148,0,0,0,.069,6.014C-.054,7.492.024,8.3,0,9.423M82.632,56.98a9.659,9.659,0,0,0-2.665-1.825,9.767,9.767,0,0,0-2.847-.846,11.4,11.4,0,0,0-1.473-.111H74.482l-4.662,0-7.124,0-.009-38.157S62.233,3.563,61.559-5.188a64.712,64.712,0,0,0-.829-8.133,4.83,4.83,0,0,0,1.743,1.288,2.583,2.583,0,0,0,.568.178l11.123,0a7.763,7.763,0,0,1,4.089.616A5.812,5.812,0,0,1,81.024-8.22a5.859,5.859,0,0,1,.409,2.169v3.125c0,2.1,0,4.235,0,6.366,0,17.047.009,33.978.009,33.978s.453,11.035,1.127,18.771c.021.289.041.519.062.791M4.422,79.219a4.635,4.635,0,0,1,4.25-4.47,14.325,14.325,0,0,1,2.038-.142H24.288c-.115.567-.219,1.209-.311,1.9-.1-.418-.832,9.568-.832,9.568v.058L9.936,86.122a5.714,5.714,0,0,1-4.642-2.7,5.558,5.558,0,0,1-.848-2.632c-.021-.442-.024-.992-.024-1.566M4.408,7.649A5.909,5.909,0,0,1,5.971,3.216a5.725,5.725,0,0,1,4.187-1.824l6.489,0,12.982,0L58.861.32c-.248,6.519-.578,16.8-.578,16.8V56.4a2.211,2.211,0,0,0,2.212,2.21H75.647a6.986,6.986,0,0,1,.848.066,5.35,5.35,0,0,1,1.6.477,5.765,5.765,0,0,1,3.314,5.42,5.676,5.676,0,0,1-2.005,4.1l-.134.1a5.591,5.591,0,0,1-3.379,1.3l-.035,0a1.965,1.965,0,0,0-.314.1l-38.269,0-19.319,0H10.711a18.643,18.643,0,0,0-2.774.205,10.746,10.746,0,0,0-3.522,1.265l0-44.54,0-12.982Zm22.4,37.32s.043.546.117,1.358l-.856,0s-3.856.362-6.557.9c-4.585.752-2.754,1.533.09,1.953-.3.077,6.8.668,6.8.668h.9c.122,1.009.259,2.042.414,2.965.752,5.488,1.533,3.3,1.953-.107a26.866,26.866,0,0,0,.279-2.858H50.047c.063,0,.085,0,.166-.087a2.209,2.209,0,0,0,.033-3.308.667.667,0,0,0-.2-.144l-19.842.013c.073-1.018.125-1.753.125-1.753V24.984H50.047c.063,0,.085,0,.166-.087a2.209,2.209,0,0,0,.033-3.308.638.638,0,0,0-.2-.142l-19.717.011V16.273c0-.074,0-.1-.087-.2-.5-.668-1.784-1.633-3.308-.041a.866.866,0,0,0-.144.238c0,.1,0,2.191,0,5.187l-.726,0s-3.856.362-6.557.9c-4.585.752-2.754,1.535.09,1.955-.3.076,6.8.666,6.8.666h.4c0,8.445.011,19.986.011,19.986" transform="translate(0.003 16.277)" fill="#595b60"/>
    </g>
  </g>
</svg>
