<svg id="Group_238" data-name="Group 238" xmlns="http://www.w3.org/2000/svg" xmlns:xlink="http://www.w3.org/1999/xlink" width="76.68" height="122.15" viewBox="0 0 76.68 122.15">
  <defs>
    <clipPath id="clip-path">
      <path id="Path_1402" data-name="Path 1402" d="M0,57.212H76.68V-64.938H0Z" transform="translate(0 64.938)" fill="none"/>
    </clipPath>
  </defs>
  <g id="Group_237" data-name="Group 237" transform="translate(0 0)" clip-path="url(#clip-path)">
    <g id="Group_236" data-name="Group 236" transform="translate(0 -0.001)">
      <path id="Path_1401" data-name="Path 1401" d="M35.634,27.45c-.956-4.061-1.894-8.053-2.722-11.572-1.715-7.1-2.97-12.3-2.97-12.3S27.79-4.394,24.557-16.378l-2.613-9.68a6.762,6.762,0,0,0-2.08-3.482,6.63,6.63,0,0,0-3.982-1.608,7.125,7.125,0,0,0-2.133.245l-1.377.369q-1.383.37-2.79.747l-23.556,6.309-6.019,1.612-1.5.4-.749.2a7.241,7.241,0,0,0-1.11.4,6.558,6.558,0,0,0-3.3,3.429,6.514,6.514,0,0,0-.5,2.359,7.152,7.152,0,0,0,.079,1.206c.081.425.173.79.229.982q.4,1.47.79,2.929.787,2.915,1.554,5.752c2.039,7.56,3.95,14.638,5.6,20.742,3.3,12.206,5.536,20.507,5.654,20.949A7.886,7.886,0,0,0-12.78,38.5a12.138,12.138,0,0,0,2.09,2.8c-.032.179-.053.363-.085.542A12.277,12.277,0,0,0-10.8,43.1c.371,8.6,3.128,4.11,4.481.594a3.571,3.571,0,0,0,.3-1.029c.568-3.254,1.048-6.5,1.507-9.744l.668-4.851c.233-1.8.339-2.658,1.008-3.644a5.205,5.205,0,0,1,5.85-2.122,5.206,5.206,0,0,1,3.659,5.024l0,.164c0,.017.011.032.011.049L6.6,43.119l-.023,3.943a12.986,12.986,0,0,0,1,4.665c.986,2.618,2.045,4.883,2.673,7.2a14.718,14.718,0,0,1,.508,6.723c-.378,1.936-1.437,4.723-2.19,7.169L4.217,86.181H-17.544v-6.13a8.58,8.58,0,0,0-.115-1.81,9.308,9.308,0,0,0-.564-1.868,76.5,76.5,0,0,0-5.9-10.263s-2.56-3.785-6.108-8.777l-2.786-3.954c-.9-1.336-2.065-2.884-2.682-4.065a9.627,9.627,0,0,1-.182-8.252l.026-.056.066-.181c2.086-7.182,3.659-12.659,3.412-12,.591-2.146,1.159-4.213,1.691-6.153A14.4,14.4,0,0,1-28.39,18.24a20.545,20.545,0,0,1,2.654-2.776,14.07,14.07,0,0,0,1.533-1.6c.467-.653-.252-.414-2.573,1.053A14.291,14.291,0,0,0-31.088,18.9a15.358,15.358,0,0,0-1.979,3.849c-.514,1.445-1.072,3.017-1.68,4.729-1.364,3.858-2.837,8.03-4.306,12.189a13.259,13.259,0,0,0-.056,11.721c1.826,3.312,3.506,5.7,4.979,8.049l4.829,7.535a101.887,101.887,0,0,1,6.236,10.361,7.959,7.959,0,0,1,.713,1.924l0,3.113v6.222a2.4,2.4,0,0,0,2.4,2.4l25.926,0A2.4,2.4,0,0,0,8.25,89.337l.017-.051,4.851-14.9c.773-2.577,1.691-4.7,2.381-7.9a19.508,19.508,0,0,0-.615-8.852c-.754-2.758-1.936-5.271-2.79-7.571a8.3,8.3,0,0,1-.7-2.985l.023-3.939.09-15.757,0-.117c0-.04-.024-.073-.028-.113a10.04,10.04,0,0,0-7.063-9.458A10.042,10.042,0,0,0-6.872,21.786a12.1,12.1,0,0,0-1.753,5.626l-.668,4.84c-.041.3-.094.593-.137.89-.941-3.487-2.62-9.7-4.75-17.593C-15.8,9.531-17.689,2.551-19.7-4.9q-.756-2.8-1.533-5.671c-.4-1.77-1.354-4.377-1.068-4.71a1.744,1.744,0,0,1,.683-1.038,1.808,1.808,0,0,1,.591-.278l1.478-.4,5.935-1.589L9.608-24.811l5.449-1.46a1.741,1.741,0,0,1,1.981.766,1.986,1.986,0,0,1,.229.587l.337,1.243q.333,1.233.655,2.43.646,2.387,1.245,4.609L24.816,3.038s2.782,9.5,5.513,18.822c.685,2.325,1.366,4.64,2,6.792q.237.807.466,1.578a2.5,2.5,0,0,1,.115.9,2.445,2.445,0,0,1-.641,1.5,2.562,2.562,0,0,1-1.258.741l-1.659.5c-.886.271-1.3.406-1.1.365-15.187,4.663-24.8,8.342.207,2.707l2.835-.621a7.939,7.939,0,0,0,1.682-.493,5.533,5.533,0,0,0,1.652-1.157,5.635,5.635,0,0,0,1.606-3.758,15.831,15.831,0,0,0-.6-3.463" transform="translate(40.446 31.157)" fill="#595b60"/>
    </g>
  </g>
</svg>
