<svg id="Group_239" data-name="Group 239" xmlns="http://www.w3.org/2000/svg" xmlns:xlink="http://www.w3.org/1999/xlink" width="103.84" height="97.263" viewBox="0 0 103.84 97.263">
  <defs>
    <clipPath id="clip-path">
      <path id="Path_1404" data-name="Path 1404" d="M0,40.491H103.84V-56.772H0Z" transform="translate(0 56.772)" fill="none"/>
    </clipPath>
  </defs>
  <g id="Group_240" data-name="Group 240" transform="translate(0 0)" clip-path="url(#clip-path)">
    <g id="Group_239-2" data-name="Group 239" transform="translate(-0.001 0.001)">
      <path id="Path_1403" data-name="Path 1403" d="M43.126,21.721l-.048-.051c-.745-.805-1.557-1.679-2.419-2.609-3.8-4.132-8.169-8.808-12.315-13.209a2.823,2.823,0,0,0,1.694-1.09c.108-.12.108-.154.108-.245V-19.04a2.221,2.221,0,0,0-2.22-2.222H17.145a2.221,2.221,0,0,0-2.22,2.222v.946s.74,10.586.836,10.144c.027.212.055.418.084.624-1.9-1.994-3.074-3.216-3.074-3.216L-6.41-29.806l-.009-.009a2.207,2.207,0,0,0-3.12.01L-59.823,20.775a2.219,2.219,0,0,0-.644,1.561,2.215,2.215,0,0,0,2.215,2.215l11.22,0,0,34.525a11.03,11.03,0,0,0,.18,1.23c.872,3.764,1.681,4.754,2.364,4.406.994.31,3.723.632,8.986.953,9.178.675,22.268,1.131,22.268,1.131l42.21.01h0a2.212,2.212,0,0,0,2.212-2.213l.009-39.236a3.317,3.317,0,0,0-.18-.673,5.024,5.024,0,0,0-1.484-2.229c1.578.267,5.563.547,12.88.824a.928.928,0,0,0,.716-1.559M18.216-7.817c.531-3.166.922-7.35,1.067-9.02l6.433,0-.01,19.89C22.717-.107,19.97-3,17.772-5.305c.147-.632.3-1.443.444-2.512M28.78,22.242c-.875.118-1.559,1.472-1.919,2.558a1.2,1.2,0,0,0-.108.559V62.374H-12.11s-24.1.74-23.092.838a77.522,77.522,0,0,0-8.679.809A14.458,14.458,0,0,0-42.7,60.1a3.677,3.677,0,0,0,.108-1.019V22.336a2.22,2.22,0,0,0-2.22-2.22h-8.1L-7.971-25.1,8.187-8.879S39.758,21.771,38.528,20.4c.3.278.57.536.862.81-6.632.284-11.083.642-10.61,1.033M-10.815,8.1a9.874,9.874,0,0,0-6.921,9.474,9.729,9.729,0,0,0,5.7,8.688l-4.033,22.734a1.862,1.862,0,0,0-.027.31,1.775,1.775,0,0,0,1.775,1.775l9.993,0a3.634,3.634,0,0,0,.627-.144c1.907-.694,2.388-1.333,2.22-1.878a55.411,55.411,0,0,0-.7-8.436c-.526-4.669-1.293-10.4-1.845-14.422A9.914,9.914,0,0,0-1.6,24.791,7.932,7.932,0,0,0-.46,23.732a9.688,9.688,0,0,0,.7-11.71A9.884,9.884,0,0,0-10.815,8.1m8.182,12.668a6,6,0,0,1-.8,1.033,6.665,6.665,0,0,1-2.8,1.744l-.111.034A1.568,1.568,0,0,0-7.395,25.38c1.324,6.442,3.288,15.926,3.229,15.3.738,3.267,1.449,6.085,1.958,7.6a6.8,6.8,0,0,0-1.6-.67,1.273,1.273,0,0,0-.519-.087H-12.2L-8.282,25.41l.005-.026a1.756,1.756,0,0,0-1.278-2,6.2,6.2,0,0,1-4.626-5.648,6.275,6.275,0,0,1,4.026-6.118A6.309,6.309,0,0,1-3.071,13.5a6.19,6.19,0,0,1,.439,7.264" transform="translate(60.467 30.455)" fill="#595b60"/>
    </g>
  </g>
</svg>
