<svg xmlns="http://www.w3.org/2000/svg" xmlns:xlink="http://www.w3.org/1999/xlink" width="100.19" height="101.15" viewBox="0 0 100.19 101.15">
  <defs>
    <clipPath id="clip-path">
      <path id="Path_1410" data-name="Path 1410" d="M0,40.228H100.19V-60.922H0Z" transform="translate(0 60.922)" fill="none"/>
    </clipPath>
  </defs>
  <g id="Group_249" data-name="Group 249" transform="translate(0)">
    <g id="Group_250" data-name="Group 250" transform="translate(0 0)" clip-path="url(#clip-path)">
      <g id="Group_249-2" data-name="Group 249" transform="translate(0.001 0.001)">
        <path id="Path_1409" data-name="Path 1409" d="M33.543,14.79C27.124,14.076,17.971,13.6,17.971,13.6l-56.956-.02a1.857,1.857,0,0,0-.47.189c-3.16,2.016-1.249,3.716.08,4.377a.587.587,0,0,0,.39.116H17.182s16.852-.78,16.148-.883c6.751-.556,11.1-1.591.213-2.587M47.682-9.236h-.066l-9.567-.146v-1.3c0-.594,0-1.318,0-2.147a17.75,17.75,0,0,0-.161-3.246,7.937,7.937,0,0,0-7.158-6.22,8.175,8.175,0,0,0-5.311,1.446,7.825,7.825,0,0,0-3.16,4.762,30.577,30.577,0,0,0-.168,4.551v1.913l-12.5-.191-30.512,0v-.935c0-.6,0-1.318,0-2.148a17.749,17.749,0,0,0-.161-3.246,7.935,7.935,0,0,0-7.158-6.218,8.167,8.167,0,0,0-5.311,1.444,7.839,7.839,0,0,0-3.161,4.762,30.771,30.771,0,0,0-.166,4.551v1.79l-11.544,0A2.35,2.35,0,0,0-50.791-7.5L-50.8,76.413h0a2.356,2.356,0,0,0,2.379,2.333l64.649,0a2.423,2.423,0,0,0,1.639-.638L42.714,55.124c.415-.412,1.172-1.3,1.325-1.488,3.578-4.5,4.314-6.283,3.639-6.608.352-2.366.722-10.45,1.089-26.822.2-8.74.418-18.6.624-27.7v-.012a1.719,1.719,0,0,0-1.71-1.728M26.862-7.38v-6.932a4.083,4.083,0,0,1,.051-.727,3.231,3.231,0,0,1,3.153-2.617,3.212,3.212,0,0,1,3.087,2.228,3.161,3.161,0,0,1,.131.815c0,.432.008,5.187.008,5.187S33.5-6.191,33.7-2.97c.053.8.183,2.736.186,2.784a3.642,3.642,0,0,1,0,.422,3.515,3.515,0,0,1-.066.593c-.183.789-.495,1.244-.405,1.177-.907,1.8-2.886,2.391-3.319,2.8-.01-.065-.007-.138-.02-.2A2.005,2.005,0,0,0,29.6,3.576c-.156-.324-.193-.541-.325-.755-.058-.131-.078-.136-.143-.153a3.259,3.259,0,0,1-1.048-.545A3.133,3.133,0,0,1,26.862-.4Zm-58.968-7a4.083,4.083,0,0,1,.051-.727A3.233,3.233,0,0,1-28.9-17.727,3.214,3.214,0,0,1-25.815-15.5a3.238,3.238,0,0,1,.133.815c0,.432.007,5.188.007,5.188s.206,3.233.412,6.455c.053.794.108,1.587.158,2.329,0,0,.025.405.028.453a3.645,3.645,0,0,1,0,.422,3.517,3.517,0,0,1-.066.593c-.183.789-.495,1.244-.405,1.177-.9,1.788-2.851,2.381-3.3,2.791-.007-.063,0-.131-.007-.193a2.489,2.489,0,0,0-.506-1.028c-.154-.324-.191-.541-.324-.755-.058-.131-.08-.136-.144-.151a3.32,3.32,0,0,1-1.048-.545,3.139,3.139,0,0,1-1.222-2.53ZM40.725,50.685a8.982,8.982,0,0,0-1.29,1.036L18.62,70.984V49.708H30.083s12.574-.78,12.047-.882c.589-.065,1.149-.138,1.674-.214-1.028.638-2.105,1.365-3.078,2.072m6.04-3.556a18.876,18.876,0,0,0-4.476-.888c-4.788-.714-11.619-1.194-11.619-1.194L16.232,45.04a2.354,2.354,0,0,0-2.376,2.329l-.013,26.7H-46.031V-5.155h9.155c0,1.63,0,3.2,0,4.586a7.841,7.841,0,0,0,3,6.268,8,8,0,0,0,2.643,1.375,1.974,1.974,0,0,0,.56-.053A3.363,3.363,0,0,0-29.5,6.46a2.974,2.974,0,0,0,.468-.679,2.016,2.016,0,0,0,.2-.661,1.8,1.8,0,0,0,.789.276A5.4,5.4,0,0,0-23.531,3.6a6.409,6.409,0,0,0,1.347-2A6.6,6.6,0,0,0-21.8.314l.091-.533.065-.591c.139-1.42.271-2.754.385-3.912.013-.158.023-.282.035-.433H6.239s6.674-.078,15.853-.183c0,1.725,0,3.382,0,4.84a7.841,7.841,0,0,0,3,6.268,8.015,8.015,0,0,0,2.643,1.375,1.974,1.974,0,0,0,.56-.053,3.422,3.422,0,0,0,1.174-.56,2.974,2.974,0,0,0,.468-.679,1.383,1.383,0,0,0,.2-.657,1.817,1.817,0,0,0,.782.272,5.4,5.4,0,0,0,4.519-1.791,6.409,6.409,0,0,0,1.347-2,6.6,6.6,0,0,0,.389-1.3l.091-.535.065-.589c.139-1.42.271-2.754.385-3.912.025-.315.046-.578.07-.867,2.65-.03,5.318-.06,7.951-.091.181,14.192.35,26.177.393,24.926.272,13.462.654,24.616,1.091,27.658a4.42,4.42,0,0,0-.453.153" transform="translate(50.798 22.399)" fill="#595b60"/>
      </g>
    </g>
  </g>
</svg>
