<svg id="Group_246" data-name="Group 246" xmlns="http://www.w3.org/2000/svg" xmlns:xlink="http://www.w3.org/1999/xlink" width="111.431" height="102.442" viewBox="0 0 111.431 102.442">
  <defs>
    <clipPath id="clip-path">
      <path id="Path_1406" data-name="Path 1406" d="M0,44.317H111.431V-58.125H0Z" transform="translate(0 58.125)" fill="none"/>
    </clipPath>
  </defs>
  <g id="Group_245" data-name="Group 245" transform="translate(0 0)" clip-path="url(#clip-path)">
    <g id="Group_244" data-name="Group 244" transform="translate(-0.001 -0.001)">
      <path id="Path_1405" data-name="Path 1405" d="M47.784,10.067c-.358-4.115-.9-7.351-1.5-7.1.388-1-.546-2.3-1.4-3.13a1.008,1.008,0,0,0-.458-.328c-.254-.1-4.933-2.05-11.812-4.907L20.926-10.25,17.685-11.6a17.919,17.919,0,0,0-3.9-1.324,15.7,15.7,0,0,0-8.669.746c-9.04,3.766-18.049,7.517-24.8,10.328A10.454,10.454,0,0,1-23.657-.682a11.968,11.968,0,0,1-3.128-.155,14.418,14.418,0,0,1-2.649-.931s-22.184-8.3-21.313-7.818c-5.414-1.852-9.738-3.046-9.36-2.207-1.116-.037-1.992,1.02-2.437,1.865a.6.6,0,0,0-.127.409v58.7s.864,17.614.976,16.877c.386,4.438.982,7.876,1.644,6.992.5.633,2.852,2.059,7.929,4.614,8.019,4.195,19.685,9.626,19.685,9.626l.82.34c.629.236,1.087.516,2.577,1.008a15.552,15.552,0,0,0,4.625.6,16.5,16.5,0,0,0,2.825-.273A13.643,13.643,0,0,0-18.554,88L6.6,77.534a10.017,10.017,0,0,1,1.415-.523,9.165,9.165,0,0,1,1.436-.252,12.087,12.087,0,0,1,3.031.065,9.534,9.534,0,0,1,1.26.282l.763.3.834.347q1.666.693,3.287,1.366l11.847,4.926,11.967,4.975a3.017,3.017,0,0,0,.691.062c1.792-.129,2.688-.578,3.054-1.16,1.123.048,2-1.017,2.45-1.865a.585.585,0,0,0,.125-.409v-58.7S47.9,9.33,47.784,10.067m-2.859-.222c-.79,6.708-1.32,16.276-1.32,16.276s-.016,47.933-.019,57.773c-1.646-.684-5.631-2.341-10.975-4.559L20.926,74.479l-3.241-1.347a18.008,18.008,0,0,0-3.9-1.325,15.717,15.717,0,0,0-8.669.747c-9.04,3.766-18.049,7.517-24.8,10.328a10.454,10.454,0,0,1-3.981,1.165,11.968,11.968,0,0,1-3.128-.155,14.418,14.418,0,0,1-2.649-.931s-22.184-8.3-21.313-7.818c-4.39-1.5-8.067-2.571-9.107-2.478a31.026,31.026,0,0,0,1.017-6.382c.788-6.708,1.318-16.276,1.318-16.276S-57.5-8.706-57.5-9.519a1.859,1.859,0,0,0-.21-.492c-.012-.019-.025-.028-.037-.048,1.285.753,3.116,1.736,5.622,3C-44.1-2.867-32.437,2.564-32.437,2.564l.82.34c.629.236,1.087.516,2.577,1.008a15.552,15.552,0,0,0,4.625.6,16.494,16.494,0,0,0,2.825-.273,13.552,13.552,0,0,0,3.037-.964L6.6-7.2A10.016,10.016,0,0,1,8.013-7.72a9.163,9.163,0,0,1,1.436-.252,12.087,12.087,0,0,1,3.031.065,9.534,9.534,0,0,1,1.26.282l.763.3.834.347,3.287,1.366L30.472-.684c6.972,2.9,11.715,4.87,11.967,4.975a3.1,3.1,0,0,0,.691.06,4.322,4.322,0,0,0,2.823-.922,30.421,30.421,0,0,0-1.028,6.415M32.463,49.121a6.958,6.958,0,0,0-3.019-3.782c-.113-.069-.123-.062-.153-.041l-5.354,4.239c-2.765-3.352-5.631-6.824-5.707-6.916a.673.673,0,0,0-.25.025,5.756,5.756,0,0,0-3.713,3.1c-.06.123-.049.136-.023.171.076.093,2.912,3.52,5.643,6.824l-1.3,1.033a36.16,36.16,0,0,0-2.474,3.2c-.906,1.5-1.026,3.054,1.734,2.274a20.8,20.8,0,0,0,3.788-1.317s.619-.486,1.544-1.218c1.056,1.276,1.775,2.143,1.775,2.143s3.876,3.335,3.828,3.1c1.761,1.163,3.472,1.438,2.244-1.773a29.706,29.706,0,0,0-1.951-4.429s-.751-.911-1.845-2.237L32.5,49.356a.7.7,0,0,0-.039-.234M24.365,24.3a20.728,20.728,0,0,1,.3,2.892c.005.865-.044,1.852-.069,2.346-.113,1.276-.257,2.007-.278,2.143-.026.27-.111,1.1-.132,1.325-.449,4.459-.737,5.582.192,5.153.832-.4,2.229-2.667,2.878-4.7a5.68,5.68,0,0,0,.324-1.209c.023-.153.187-.978.314-2.4.049-.858.074-1.517.085-2.538a23.3,23.3,0,0,0-.351-3.527,17.6,17.6,0,0,0-3.953-8.391,16.93,16.93,0,0,0-4.392-3.65,15.257,15.257,0,0,0-2.85-1.3,11.858,11.858,0,0,0-1.609-.4,11.757,11.757,0,0,0-1.56-.229A20.42,20.42,0,0,0-.121,12.942a13.4,13.4,0,0,0-4.891,6.1A16.278,16.278,0,0,0-5.9,26.965a21.345,21.345,0,0,0,2.24,7.705c1.149,2.383,2.5,4.559,3.476,6.784a15.324,15.324,0,0,1-.09,13.673A15.812,15.812,0,0,1-4.7,60.577a14.983,14.983,0,0,1-6.406,2.61,20.831,20.831,0,0,1-13.564-2.274,18.507,18.507,0,0,1-8.8-9.177,22.882,22.882,0,0,1-1.271-3.874,13.287,13.287,0,0,0,3.56.342A19.03,19.03,0,0,0-23.3,45.688c4.826-2.628,9.043-7.023,10.016-12.224a13.834,13.834,0,0,0-3.377-12.022,11.209,11.209,0,0,0-3.169-2.392,16.7,16.7,0,0,0-1.606-.571,10.739,10.739,0,0,0-7.977,1.932c-4.255,2.871-8.8,8.964-9.524,17.624a47.746,47.746,0,0,0,.19,6.054,17.768,17.768,0,0,1-6.678-8.477,16.1,16.1,0,0,1-1-6.565c.129-.855-.576-.2-.687,2.947A16.392,16.392,0,0,0-45.664,38.3a17.337,17.337,0,0,0,6.789,7.933c.152.092.324.159.479.245a28.9,28.9,0,0,0,1.2,4.794,21.75,21.75,0,0,0,9.512,11.736,24.637,24.637,0,0,0,15.665,3.645A19.914,19.914,0,0,0-3.9,64.031a18.115,18.115,0,0,0,5.975-6.3A18.6,18.6,0,0,0,3.235,41.047C1.086,35.862-2.155,31.911-2.514,27.3c-.8-4.6.594-9,3.879-11.377a17.219,17.219,0,0,1,11.17-2.855,12.337,12.337,0,0,1,8.509,4.348,14.26,14.26,0,0,1,3.32,6.888M-35.684,40.078a21.236,21.236,0,0,1,6.5-15.668,11.55,11.55,0,0,1,3.9-2.392,10.82,10.82,0,0,1,1.5-.338s.159-.016.458-.042a2.663,2.663,0,0,0,.37-.046l.915.109a7.363,7.363,0,0,1,3.613,2.513,10.727,10.727,0,0,1,2.492,6.444,11.956,11.956,0,0,1-2.5,7.594,20.347,20.347,0,0,1-6.352,5.511c-.622.338-1.239.728-1.826,1-.576.215-1.14.423-1.685.626a14.374,14.374,0,0,1-3.229.673,13.031,13.031,0,0,1-3.668-.324,39.277,39.277,0,0,1-.485-5.665" transform="translate(62.672 13.204)" fill="#595b60"/>
    </g>
  </g>
</svg>
