<svg id="Group_247" data-name="Group 247" xmlns="http://www.w3.org/2000/svg" xmlns:xlink="http://www.w3.org/1999/xlink" width="119.641" height="89.086" viewBox="0 0 119.641 89.086">
  <defs>
    <clipPath id="clip-path">
      <path id="Path_1408" data-name="Path 1408" d="M0,43.44H119.641V-45.646H0Z" transform="translate(0 45.646)" fill="none"/>
    </clipPath>
  </defs>
  <g id="Group_248" data-name="Group 248" transform="translate(0 0)" clip-path="url(#clip-path)">
    <g id="Group_247-2" data-name="Group 247" transform="translate(0.001 -0.001)">
      <path id="Path_1407" data-name="Path 1407" d="M57.078,0-57.38-.005a2.6,2.6,0,0,0-2.6,2.6c-.02,25.059.217,50.283.6,75.243.027.679.16,1.948.193,2.207.812,6.325,1.487,7.6,2.051,6.5,2.371.285,11.595.609,30.9,1.019,15.881.351,34.933.773,50.037,1.109l26.674.416,6.6,0h0a2.579,2.579,0,0,0,2.578-2.58l.006-83.91h0A2.585,2.585,0,0,0,57.078,0m-2.6,83.9h0l-40.185.539c-19.923.316-39.6.664-37.931.695-16.283.408-30.011.73-33.358,1.085.628-1.694,1.114-6.263,1.493-9.758a16.6,16.6,0,0,0,.125-1.959c.369-23.219.591-46.2.593-69.31H54.476ZM12.192,45.625a.617.617,0,0,0,.154-.213c.146-.539-.219-.718-.8-.728-.07-.215-1.062-.96-3.454-2.572-2.383-1.669-4.739-3.316-6.53-4.569L-2.19,35.082l-4.095-2.231L-9.322,31.2l0,3.478L-9.332,54.73v3.421l3.049-1.591C.029,53.268,6.411,49.337,12.192,45.625M-5.176,38.1c.564.238,2.972,1.251,5.379,2.262C3,41.486,5.909,42.692,5.716,42.577c2.438.919,4.62,1.881,5.469,2.121-.863.07-2,.377-2.779.525a1.516,1.516,0,0,0-.365.109C3.36,47.313-.93,49.165-5.176,51.308ZM-9.644,68.007a22.238,22.238,0,0,0,3.279,1.06c.771.193,1.183.293,1.183.293l1.405.187a27.189,27.189,0,0,0,3.7.2,24.834,24.834,0,0,0,10.672-2.705,24.635,24.635,0,0,0,8.244-6.733,18.926,18.926,0,0,0,2.272-3.577c3.035-5.714,2.615-11.119,2.27-12.149.059-.021.123,0,.182-.043a5.242,5.242,0,0,0,1.249-3.347,2.25,2.25,0,0,0-.016-.771,22.457,22.457,0,0,0-1.349-4.981,25.229,25.229,0,0,0-7.264-10.219A25.5,25.5,0,0,0-.047,19.238a25.411,25.411,0,0,0-18.092,7.494,25.437,25.437,0,0,0-7.321,18.09,25.442,25.442,0,0,0,5.949,16.025,25.355,25.355,0,0,0,9.868,7.159M-15.62,30.133A21.046,21.046,0,0,1-.469,23.407a21.4,21.4,0,0,1,13.818,4.86,21.164,21.164,0,0,1,6.2,8.624A18.663,18.663,0,0,1,20.687,41.1a4.688,4.688,0,0,0,.285.742c.851,1.87,1.493,2.721,2.051,2.83a11.349,11.349,0,0,0-.377,1.641,26.967,26.967,0,0,1-3.341,8.966,22.693,22.693,0,0,1-13.584,9.9,21.3,21.3,0,0,1-6.312.6,18.893,18.893,0,0,1-2.5-.283,18.3,18.3,0,0,1-3.843-.9,21.142,21.142,0,0,1-8.677-5.611,20.912,20.912,0,0,1-5.658-13.322A21.121,21.121,0,0,1-15.62,30.133m-31.6-10.33h.02a44.03,44.03,0,0,0,6.757-.515c.027-.018.025-.117.02-.144a3.48,3.48,0,0,0-.931-1.433c.246.15.529-.076.929-1.068a11.966,11.966,0,0,0,.81-2.588,1.326,1.326,0,0,0-1-1.542l-.712-.166-1.522-.355-4.352-.006a2.074,2.074,0,0,0-2.071,2.069l0,3.673A2.072,2.072,0,0,0-47.217,19.8m4.186-3.667.759-.137c.263.541.474,1.126.695,1.472-.56-.519-1.161-.927-1.479-1.208-.1-.082-.113-.086-.142-.092-.062-.014-.115-.02-.178-.035Zm-4.186,22.774h.02a44.277,44.277,0,0,0,6.757-.515c.027-.02.025-.119.02-.144a3.478,3.478,0,0,0-.933-1.434c.246.152.531-.074.931-1.068a11.985,11.985,0,0,0,.81-2.59,1.325,1.325,0,0,0-1-1.542l-.712-.166c-.947-.222-1.522-.355-1.522-.355l-4.352-.006H-47.2a2.068,2.068,0,0,0-2.065,2.069l0,3.677a2.073,2.073,0,0,0,2.055,2.075m4.186-3.671.759-.137c.263.541.474,1.128.695,1.474-.558-.517-1.161-.925-1.479-1.208-.1-.082-.113-.084-.142-.092-.068-.016-.127-.021-.2-.037ZM-47.217,58.01h.02a44.031,44.031,0,0,0,6.757-.515c.027-.018.025-.117.02-.142a3.474,3.474,0,0,0-.931-1.434c.246.15.529-.076.929-1.068a11.982,11.982,0,0,0,.81-2.586,1.327,1.327,0,0,0-1-1.544l-.712-.166-1.522-.355-4.352-.006a2.073,2.073,0,0,0-2.071,2.069l0,3.673a2.071,2.071,0,0,0,2.055,2.075m4.186-3.667.759-.137c.263.541.474,1.126.695,1.472-.56-.519-1.161-.927-1.479-1.208-.1-.082-.113-.086-.142-.092-.062-.014-.115-.021-.178-.035Zm-4.186,22.772h.02a44.275,44.275,0,0,0,6.757-.515c.027-.02.025-.119.02-.144a3.5,3.5,0,0,0-.931-1.434c.246.15.529-.074.929-1.066a12,12,0,0,0,.81-2.588,1.325,1.325,0,0,0-1-1.542l-.712-.166-1.522-.357-4.352,0a2.071,2.071,0,0,0-2.071,2.069l0,3.673a2.072,2.072,0,0,0,2.055,2.075m4.186-3.667.759-.139c.263.541.474,1.126.695,1.472-.56-.519-1.161-.925-1.479-1.208-.1-.082-.113-.084-.142-.092-.062-.014-.115-.02-.178-.033ZM40.7,19.8h.02a44.03,44.03,0,0,0,6.757-.515c.029-.018.025-.117.02-.144a3.48,3.48,0,0,0-.931-1.433c.246.15.529-.074.929-1.068a11.966,11.966,0,0,0,.81-2.588,1.323,1.323,0,0,0-1-1.542l-.71-.166-1.524-.355-4.352-.006a2.071,2.071,0,0,0-2.069,2.069l-.006,3.673A2.072,2.072,0,0,0,40.7,19.8m4.186-3.667L45.643,16c.263.541.474,1.126.695,1.472-.56-.519-1.161-.927-1.479-1.208-.105-.082-.115-.086-.142-.092-.064-.014-.117-.02-.18-.035ZM40.7,38.909h.02a44.277,44.277,0,0,0,6.757-.515c.027-.02.025-.119.02-.144a3.474,3.474,0,0,0-.931-1.434c.246.15.529-.074.929-1.068a11.878,11.878,0,0,0,.81-2.59,1.322,1.322,0,0,0-1-1.542l-.71-.166c-.947-.222-1.522-.355-1.522-.355l-4.354-.006h-.006a2.065,2.065,0,0,0-2.063,2.069l-.006,3.677A2.073,2.073,0,0,0,40.7,38.909m4.188-3.671.757-.137c.263.541.476,1.128.7,1.474-.56-.519-1.161-.925-1.479-1.208-.105-.082-.115-.084-.142-.092-.07-.016-.127-.021-.2-.037ZM40.7,58.01h.02a44.031,44.031,0,0,0,6.757-.515c.029-.018.025-.117.02-.142a3.493,3.493,0,0,0-.931-1.436c.246.152.529-.072.929-1.066a11.982,11.982,0,0,0,.81-2.586,1.324,1.324,0,0,0-1-1.544l-.71-.166L45.067,50.2l-4.352-.006a2.07,2.07,0,0,0-2.069,2.069l-.006,3.673A2.071,2.071,0,0,0,40.7,58.01m4.186-3.667.761-.137c.263.541.474,1.126.695,1.472-.56-.519-1.161-.927-1.479-1.208-.105-.082-.115-.086-.142-.092-.064-.014-.117-.021-.18-.035ZM40.7,77.115h.02a44.276,44.276,0,0,0,6.757-.515c.029-.02.025-.119.02-.144a3.459,3.459,0,0,0-.933-1.434c.248.152.531-.072.931-1.066a12,12,0,0,0,.81-2.588,1.322,1.322,0,0,0-1-1.542l-.71-.166L45.067,69.3l-4.352,0a2.069,2.069,0,0,0-2.069,2.069l-.006,3.673A2.072,2.072,0,0,0,40.7,77.115m4.186-3.667.761-.139c.263.543.474,1.128.695,1.474-.56-.519-1.161-.927-1.479-1.21-.105-.082-.115-.084-.142-.092-.064-.014-.117-.02-.18-.033Z" transform="translate(59.977 0.005)" fill="#595b60"/>
    </g>
  </g>
</svg>
