<svg xmlns="http://www.w3.org/2000/svg" width="97.507" height="82.832" viewBox="0 0 97.507 82.832">
  <path id="Path_1421" data-name="Path 1421" d="M190.512,201.172l-.16-.009-8.9-.45h-6.219c.147-1.309.317-3.267.528-6.063.293-3.433.573-7.647.741-11.328v-.009a1.659,1.659,0,0,0-1.491-1.788l-.157-.009-8.907-.45h-6.478c.147-1.309.317-3.267.528-6.063.293-3.43.573-7.644.741-11.325v-.006a1.66,1.66,0,0,0-1.491-1.791l-.157-.009-8.91-.45-22.348-.006h0a1.9,1.9,0,0,0-1.1.4c-4.475-.225-7.811-.394-7.811-.394l-22.35-.006h0a2.169,2.169,0,0,0-2.061,2.262L94.5,183.158a2.173,2.173,0,0,0,2.067,2.265c4.55.009,9.128-.047,13.7-.129l0,15.419-13.694-.006a2.171,2.171,0,0,0-2.061,2.262L94.5,222.452a2.171,2.171,0,0,0,2.067,2.265c4.55.009,9.128-.047,13.7-.129l0,17.394a2.173,2.173,0,0,0,2.067,2.265c9.968.02,20.073-.21,29.942-.561a1.941,1.941,0,0,0,1.323.561c10.016.02,20.171-.21,30.087-.567a1.8,1.8,0,0,0,.477-.155c1.075-.608,1.136-1.137.725-1.6.221-.453.477-2.764.88-8.1.24-2.823.469-6.165.637-9.315,4.283-.1,8.56-.207,12.782-.359a1.9,1.9,0,0,0,.477-.158c1.075-.608,1.136-1.137.728-1.592.221-.456.475-2.764.877-8.1.293-3.433.573-7.65.741-11.331v-.006A1.66,1.66,0,0,0,190.512,201.172Zm-55.837,19.071h-.955c-1.272-.012-2.541-.038-3.819-.041v-14.96h19.326s3.563-.137,7.654-.3h.152l0,15.3-13.443,0a1.846,1.846,0,0,0-.616.137c-2.677-.067-5.368-.088-8.046-.117ZM98.636,220.2v-14.96h19.326s3.563-.137,7.654-.3h.149l0,15.3-13.441,0a1.831,1.831,0,0,0-.616.137Q105.174,220.213,98.636,220.2ZM114.4,185.6h19.326l7.742-.3h.061l-.005,15.419-13.691-.006c-.043,0-.077.023-.117.026q-6.652-.162-13.315-.178Zm58.8-.318c.187,4.433.451,8.4.472,8.038.229,2.922.464,5.616.68,7.4l-15.257-.006c-.04,0-.075.023-.115.026q-6.656-.162-13.321-.178V185.6h19.326S168.879,185.443,173.2,185.277Zm-15.763-19.644c.187,4.43.451,8.395.472,8.035.229,2.922.464,5.616.68,7.4l-15-.006h0c-.051,0-.1.029-.147.032q-6.764-.167-13.539-.187V165.951h19.323S153.116,165.8,157.439,165.632Zm-31.673.015,0,15.416-13.441,0c-.051,0-.093.029-.147.032q-6.764-.171-13.539-.187V165.951H117.96S121.608,165.808,125.766,165.647Zm13.883,74.635c-8.523-.327-16.843-.532-25.252-.549V224.769h19.326l3.7-.143c1.371-.018,2.736-.012,4.107-.038l-.005,16.231c-.472-.167-.944-.316-1.347-.438A1.666,1.666,0,0,0,139.649,240.282Zm34.025-7.793c.336,4.284.685,8.108.96,9.222a11.563,11.563,0,0,0-3.192-1.329,1.665,1.665,0,0,0-.523-.1c-8.526-.327-16.846-.532-25.257-.549V224.769h19.326l3.7-.143c1.509-.018,3.013-.015,4.52-.041C173.4,228.962,173.655,232.846,173.674,232.489Zm13.27-11.635a1.508,1.508,0,0,0-.523-.1c-6.822-.266-13.518-.421-20.227-.5l-.253-.015h-.949c-1.272-.012-2.544-.038-3.819-.041v-14.96H180.5s3.888-.152,8.208-.318c.189,4.433.453,8.4.475,8.038.333,4.281.683,8.108.96,9.219A11.455,11.455,0,0,0,186.944,220.854Z" transform="translate(-94.495 -161.416)" fill="#595b60"/>
</svg>
