<svg xmlns="http://www.w3.org/2000/svg" width="69.909" height="96.782" viewBox="0 0 69.909 96.782">
  <path id="Path_1419" data-name="Path 1419" d="M167.019,122.011,162.07,95.96l0-.03c-.016-.073-.034-.144-.057-.217a16.722,16.722,0,0,0-3.718-6.644,9.987,9.987,0,0,0-1.359-1.086,12.188,12.188,0,0,0-3.254-1.534,16.776,16.776,0,0,0-2.467-.539A1.729,1.729,0,0,0,149.739,85h-6.65a1.883,1.883,0,0,0-1.789,1.96v14.7H122.249v-14.7A1.881,1.881,0,0,0,120.46,85h-2.543l-.552.015a2.415,2.415,0,0,0-.239-.184.263.263,0,0,0-.225-.083c-3.072.229-6.344.539-9.481,2.32a12.357,12.357,0,0,0-3.987,3.741,19.088,19.088,0,0,0-2.32,4.905,2.352,2.352,0,0,0-.06.229l0,.013-2.64,13.794s-1.322,10.078-1.166,9.68c-.207,2.431-.186,4.371.281,4.233-.032.847.814,1.509,1.492,1.847a.483.483,0,0,0,.327.1h47.014s14.107-.653,13.516-.738c3.417-.282,6.08-.71,5.65-1.189a2.189,2.189,0,0,0,1.451-1.418A.308.308,0,0,0,167.019,122.011Zm-67.675-.325a1.445,1.445,0,0,0-.393.159,5.133,5.133,0,0,0-.614.471c.235-.569.5-1.318.819-2.318,1.258-3.663,2.651-8.982,2.651-8.982l2.7-14.094c.913-2.819,2.359-5.147,4.58-6.4a11.791,11.791,0,0,1,3.074-1.164c.182,8.861.483,23.02.536,22.146.149,4.26.343,7.982.566,10.181C105.589,121.686,99.574,121.686,99.344,121.686Zm47.674.015-32.9-.01c.184-1.847.373-5,.561-9.8.359-7.6.639-17.314.789-23.02l1.157.033h2.063l0,14.711h0a1.868,1.868,0,0,0,1.777,1.948l22.626.005a1.87,1.87,0,0,0,1.78-1.953l0-14.7h3.084l0,30.883a5.977,5.977,0,0,0,.145.847c.117.438.235.806.349,1.139C147.561,121.729,147.018,121.7,147.018,121.7Zm13.035,1c-2.854-.315-6.344-.577-9-.753a14.166,14.166,0,0,0,.384-1.446,2.181,2.181,0,0,0,.087-.7V88.871a12.13,12.13,0,0,1,2.12,1.109,9.652,9.652,0,0,1,1.945,1.67,12.453,12.453,0,0,1,3.017,5.263l4.907,25.9a.955.955,0,0,0,.193.242c.062.05.115.071.175.116C163,123.012,161.751,122.855,160.054,122.7ZM114.07,64.916h2.656c.03.975.074,1.95.17,2.918a28.674,28.674,0,0,0,1.315,6.493,14.948,14.948,0,0,0,3.123,5.3,13.149,13.149,0,0,0,7.8,3.759l2.3.154c.529-.005.812-.038.812-.038l.943-.091a10.82,10.82,0,0,0,2.474-.471,11.924,11.924,0,0,0,6.569-4.379,17.193,17.193,0,0,0,2.909-7.311,17.68,17.68,0,0,0,.331-3.036c.064-1.431.044-2.7,0-3.872l2.888-.088h.076l.012,0a1.213,1.213,0,0,0,1.1-1.3,9.168,9.168,0,0,0-.074-1.4c-.106-2.648-.235-5.064-.379-6.928l-.012-.144V54.48a.684.684,0,0,0-.724-.655,23.908,23.908,0,0,0-2.683.494c-.046-.159-.094-.317-.149-.491.361-.841.757-1.94,1.044-2.683a1.476,1.476,0,0,0,.138-.5,15.828,15.828,0,0,0,.1-2.056,19.614,19.614,0,0,0-.269-3.026,18.228,18.228,0,0,0-1.975-5.666,16.125,16.125,0,0,0-7.289-6.835v-2.28a1.879,1.879,0,0,0-1.789-1.96h-8.529a1.879,1.879,0,0,0-1.789,1.96V33a16.377,16.377,0,0,0-8.094,8.559,18.221,18.221,0,0,0-1.433,6.805l-.009,4.308H114.07a1.879,1.879,0,0,0-1.789,1.96v8.324A1.881,1.881,0,0,0,114.07,64.916ZM143.532,67.7a23.977,23.977,0,0,1-1.738,6.067A10.085,10.085,0,0,1,138.331,78c-.347.2-.683.393-1,.577a10.57,10.57,0,0,1-1,.375,6.889,6.889,0,0,1-1.731.428,5.681,5.681,0,0,1-1.623.169,12.534,12.534,0,0,1-2.612.015,9.437,9.437,0,0,1-6.061-2.285c-2.051-1.721-3.378-5.132-3.787-9.183-.113-1.02-.168-2.091-.2-3.177h6.1l17.519-.527C143.834,65.349,143.712,66.435,143.532,67.7ZM115.847,56.579h1.559a1.869,1.869,0,0,0,1.78-1.95l.011-6.185a14.02,14.02,0,0,1,1.1-5.243,12.567,12.567,0,0,1,6.314-6.571v6.256s.478,3.18.54,3.049c.34,1.272.973,2.094,1.58.038a20.88,20.88,0,0,0,.731-2.935s.009-8.3.012-10.3l4.213,0v1.6l0,.02a2.7,2.7,0,0,0-.517.181c-.069.03-.069.04-.071.063v8.949s.478,2.686.54,2.575c.34,1.073.973,1.769,1.582.033a15.583,15.583,0,0,0,.729-2.482s0-4.306.009-6.986a12.48,12.48,0,0,1,5.53,5.23,14.045,14.045,0,0,1,1.518,4.359,15.208,15.208,0,0,1,.209,2.336c0,1.023.028,2.222.106,3.336a6.012,6.012,0,0,0,.2.862c.478,1.34.825,1.859,1.09,2.008.108.086.29.025.437-.083.025-.023.028-.063.051-.088a13.175,13.175,0,0,0,2.725.448c-.115,1.552-.228,3.555-.343,6.122-.009.2-.021.433-.032.64-8.88-.516-19.911-.854-19.911-.854l-11.7,0Z" transform="translate(-97.12 -28.822)" fill="#595b60"/>
</svg>
