<svg xmlns="http://www.w3.org/2000/svg" width="92.498" height="93.254" viewBox="0 0 92.498 93.254">
  <path id="Path_1423" data-name="Path 1423" d="M122.357,240.357l-.109-.023a38.915,38.915,0,0,1-15.42-7.473,68.695,68.695,0,0,1-10.251-9.7c2.21-.368,4.417-.793,6.611-1.368a48.833,48.833,0,0,0,5.172-1.623,24.516,24.516,0,0,0,5.213-2.585,2.183,2.183,0,0,0,.894-1.4,2.156,2.156,0,0,0-1.53-2.54l-.132-.031c-6.369-1.43-12.189-5.967-17.069-11.172,0,0-1.6-1.594-3.83-4.364,1.442-.266,2.936-.581,4.479-1a40.2,40.2,0,0,0,4.265-1.393,19.693,19.693,0,0,0,4.355-2.257,1.836,1.836,0,0,0-.488-3.2l-.119-.031c-4.944-1.356-9.15-5.791-11.848-8.836-2.745-3.138-4.236-5.3-3.973-4.834-3.091-4.095-5.676-8.071-7.64-11.163l-2.461-3.905-.843-1.308-.32-.464c-.013-.006-.015-.017-.023-.025a.69.69,0,0,0-.318-.527c-.39-.136-.4.02-.426.017-.031.057.036.042.049.093a.937.937,0,0,0,.057.19c-.163.1-.059.093-.119.071.09.422.163.4.269.139a1.078,1.078,0,0,0,.088.068,4.18,4.18,0,0,0,.14.476c-.041.057-.1.133-.333.17a.633.633,0,0,1-.517-.249.884.884,0,0,1-.171-.419c-.01-.493-.124-.21-.246-.2a4.814,4.814,0,0,0-.713.5,12.614,12.614,0,0,0-1.4,1.371,2.025,2.025,0,0,0-.434.589A126.717,126.717,0,0,1,62.7,178.363a53.818,53.818,0,0,1-6.3,6.984c-2.251,2.016-4.717,3.817-7.232,4.46l-.147.037a1.972,1.972,0,0,0-1.189.915,2.274,2.274,0,0,0,.569,2.971,18.4,18.4,0,0,0,4.231,2.2,37.516,37.516,0,0,0,4.135,1.325c1.566.413,3.138.731,4.712,1a60.233,60.233,0,0,1-8.02,8.448c-3.815,3.251-8.105,5.919-12.621,6.913l-.124.028a1.971,1.971,0,0,0-1.259.943,2.283,2.283,0,0,0,.589,2.982,20.564,20.564,0,0,0,3.98,2.138c1.295.558,2.6,1,3.908,1.419a67.757,67.757,0,0,0,7.906,1.892s.538.085,1.458.21a72.708,72.708,0,0,1-8.281,8.55,68.513,68.513,0,0,1-6.676,5.069c-5.017,3.347-9.721,4.752-10.641,5.352-.132.088-.163.156-.132.212a.667.667,0,0,0-.075.521c.331,1.1,2.393,2.753,4.216,3.744a3.974,3.974,0,0,0,1.091.515,94.949,94.949,0,0,0,21.489,4.31,191.812,191.812,0,0,0,21.631.807,166.661,166.661,0,0,0,21.623-1.6,96,96,0,0,0,10.747-2.161c1.781-.484,3.554-1.019,5.319-1.668a28.529,28.529,0,0,0,5.363-2.512,2.232,2.232,0,0,0-.615-4.007Zm-11.018,3.914a91.951,91.951,0,0,1-10.333,2.076,163.033,163.033,0,0,1-21.14,1.56,188.492,188.492,0,0,1-21.212-.79A91.716,91.716,0,0,1,38.036,243c-.289-.065-1.091-.246-1.3-.295-.99-.164-1.786-.292-2.461-.388a29.6,29.6,0,0,0,8.772-3.132,54.484,54.484,0,0,0,11.359-7.859,77.465,77.465,0,0,0,8.136-8.38,2.112,2.112,0,0,0,.47-1.085,2.032,2.032,0,0,0-1.582-2.328l-.116-.017c-2.233-.36-3.474-.6-3.474-.6a65.618,65.618,0,0,1-8.16-1.815c-.964-.278-1.892-.634-2.82-.983a39.882,39.882,0,0,0,9.062-5.95A67.479,67.479,0,0,0,66.9,197.946a2.368,2.368,0,0,0,.411-1.116,2.15,2.15,0,0,0-1.778-2.407,56.832,56.832,0,0,1-7.826-1.447c-1.029-.266-2.024-.606-3.009-.963a33.512,33.512,0,0,0,4.262-3.277,58.093,58.093,0,0,0,6.805-7.527,130.545,130.545,0,0,0,10.9-17.009,7.316,7.316,0,0,0,.3-.892,12.159,12.159,0,0,0,.323-2.441c.181.442.406.957.682,1.586a109.013,109.013,0,0,0,8.483,15.038,73.143,73.143,0,0,0,7.232,9.283,29.492,29.492,0,0,0,6.41,5.233c-.3.116-.61.224-.9.323a40.835,40.835,0,0,1-4.094,1.113,65.132,65.132,0,0,1-7.012,1.085,1.789,1.789,0,0,0-.954.413,2.183,2.183,0,0,0-.354,2.874l.023.034a71.359,71.359,0,0,0,4.471,5.885,57.069,57.069,0,0,0,9.3,8.7,35.856,35.856,0,0,0,6.221,3.67,45.929,45.929,0,0,1-4.536,1.422,76.834,76.834,0,0,1-9.971,1.858,1.931,1.931,0,0,0-1.088.521,2.339,2.339,0,0,0-.2,3.087,76.08,76.08,0,0,0,13.551,13.489,48.215,48.215,0,0,0,11.168,6.42C114.28,243.4,112.822,243.868,111.339,244.27Z" transform="translate(-31.476 -159.078)" fill="#595b60"/>
</svg>
