<svg xmlns="http://www.w3.org/2000/svg" width="75.368" height="106.04" viewBox="0 0 75.368 106.04">
  <path id="Path_1424" data-name="Path 1424" d="M271.891,245.362a5.641,5.641,0,0,0-2.388-.634l-1.79-.011h-10.6c-4.784,0-9.647,0-14.515,0H231.668a14.318,14.318,0,0,0-2.087.079,5.768,5.768,0,0,0-2.415,1.007,6.767,6.767,0,0,0-2.7,4.636,19.383,19.383,0,0,0-.068,2.239v9.587c0,10.046,0,19.453,0,27.562s0,14.926,0,19.784c.036,4.921-.092,7.562.113,8.442a6.166,6.166,0,0,0,.765,1.85,5.047,5.047,0,0,0,2.912,2.162,3.061,3.061,0,0,0,1.886-.058c.388-.177.572-.367.622-.553,1.529.3,6.863.626,17.728.944,4.455.135,9.336.28,14.155.428,1.213.029,2.424.061,3.623.092l1.788.042c.654,0,1.044.063,1.925.005a5.6,5.6,0,0,0,3.975-2.405,6.531,6.531,0,0,0,1.008-2.22,9.208,9.208,0,0,0,.212-2.183l.265-16.234s0-10.594,0-26.521V260.536l0-7.028V251.7a7.958,7.958,0,0,0-.328-2.458A6.513,6.513,0,0,0,271.891,245.362Zm-43.744,6.267a2.785,2.785,0,0,1,.688-2.056,2.306,2.306,0,0,1,1.908-.753h10.776c9.543.005,19.067.008,27.987.013a2.288,2.288,0,0,1,1.595.922,2.6,2.6,0,0,1,.429.875,3.628,3.628,0,0,1,.092.484c0,.14.017.328.012.671v45.76s.039,3.021.1,7.543H239.588s-9.811.55-9.4.621c-.748.074-1.445.161-2.041.259Zm43.648,65.924a2.809,2.809,0,0,1-1.742,2.025,2.455,2.455,0,0,1-.661.132l-1.006.026c-.7.011-1.406.021-2.1.034-1.387.021-2.75.045-4.062.066l-7.087.127c-4.079.077-6.614.137-6.13.159-9.114.241-16.625.579-18.4.967a.722.722,0,0,0-.116-.164c-.309-.341-.878-.685-1.322-1.224a3.742,3.742,0,0,1-.873-1.773,6.379,6.379,0,0,0-.106-.661c-.072.307-.034-2.831-.043-7.565v-2.432c.519.085,1.151.172,1.918.256,3.737.5,9.065.838,9.065.838l32.641.013c.022,1.626.043,3.328.065,5.144.01.735.019,1.483.029,2.239l.01,1.092A2.968,2.968,0,0,1,271.794,317.553ZM254.923,313a9.33,9.33,0,0,0-1.932-.838l-7.066-.013a.432.432,0,0,0-.06.132,5.47,5.47,0,0,0,.01,3.077c.024.079.031.079.051.079h6.967a15.647,15.647,0,0,0,2-.619C255.733,314.427,256.274,313.7,254.923,313Zm44.246-74.245c-.232-.946-.425-1.737-.562-2.292l-.3-.885a33.251,33.251,0,0,0-2.407-4.731,31.5,31.5,0,0,0-7.676-8.418,27.279,27.279,0,0,0-10.045-4.763,24.972,24.972,0,0,0-5.148-.716.859.859,0,0,0-.27.151,2.479,2.479,0,0,0-.07,3.846c.092.106.118.106.188.111a22.051,22.051,0,0,1,4.429.605,24.031,24.031,0,0,1,8.648,4.036,26.357,26.357,0,0,1,6.658,7.173c.724,1.15,1.252,2.167,1.619,2.87l.507,1.155s.277.484.634,1.237c.294.777.8,1.781,1.131,2.844.753,2.1,1.131,4.308,1.165,4.1.451,1.813.738,3.378,1.148,3.706.347.325.811-.589.926-3.872A26.736,26.736,0,0,0,299.169,238.755Zm-9.98,2.043-.176-.584a21.506,21.506,0,0,0-1.561-3.071,20.534,20.534,0,0,0-4.979-5.466,17.68,17.68,0,0,0-6.523-3.092,16.207,16.207,0,0,0-3.341-.468.564.564,0,0,0-.176.156,3.52,3.52,0,0,0-.087,3.846c.053.1.07.1.111.106a13.111,13.111,0,0,1,2.646.362A14.325,14.325,0,0,1,280.266,235a16.36,16.36,0,0,1,5.247,6.69s.181.28.415.722c.2.457.536,1.047.765,1.676.519,1.245.818,2.577.854,2.45.615,2.133,1.527,3.965,2.067-.211a15.273,15.273,0,0,0-.128-4.012C289.363,241.675,289.259,241.16,289.189,240.8ZM235.021,280.73H239.1l0,11.265a1.7,1.7,0,0,0,.123.388c.526,1.063,1.013,1.409,1.443,1.4.374.243,1.645.5,4.238.751l1.643.174,0,0a.821.821,0,0,0,.864-.788l.015-.182c.219-2.572.388-5.381.494-7.189h3.973l0,7.189a1.571,1.571,0,0,0,1.493,1.636l5.809,0a1.573,1.573,0,0,0,1.5-1.639l0-13.007,2.678,0a1.151,1.151,0,0,0,.311-.135c1.715-1.16,1.165-2.167.429-2.751-.473-.719-1.206-1.731-2.292-3.124-3.085-4.107-7.734-9.7-7.734-9.7l-3.15-3.468,0-.005a1.4,1.4,0,0,0-2.106.008L233.96,277.933a1.717,1.717,0,0,0-.434,1.158A1.572,1.572,0,0,0,235.021,280.73Zm14.857-15.687,1.669,1.837s9.309,9.465,8.981,9c.6.574,1.168,1.1,1.686,1.562H259.19a1.58,1.58,0,0,0-1.5,1.647v13h-2.806v-7.179a1.579,1.579,0,0,0-1.5-1.644h-5.72l-1.122.055-.135.008H246.4a1.46,1.46,0,0,0-1.307,1.581c.082,1.805.236,5.254.347,7.744-.3.026-.461.045-.4.053a31.712,31.712,0,0,0-3.464.455,3.966,3.966,0,0,0,.446-.851.613.613,0,0,0,.075-.322v-12.9a1.58,1.58,0,0,0-1.5-1.647H238.63Z" transform="translate(-224.386 -216.949)" fill="#595b60"/>
</svg>
