<svg xmlns="http://www.w3.org/2000/svg" width="91.173" height="93.567" viewBox="0 0 91.173 93.567">
  <path id="Path_1411" data-name="Path 1411" d="M185.467,82.388l-.04-.049-2.126-2.51c-3.334-3.974-7.174-8.473-10.813-12.7a2.48,2.48,0,0,0,1.489-1.049.3.3,0,0,0,.1-.236V43.175a2.05,2.05,0,0,0-1.95-2.137h-9.467a2.052,2.052,0,0,0-1.95,2.137v.912s.652,10.184.737,9.758c.023.206.048.4.073.6-1.669-1.917-2.7-3.092-2.7-3.092L141.973,32.818l-.005-.006a1.819,1.819,0,0,0-2.74.008L95.077,81.479a2.251,2.251,0,0,0-.566,1.5,2.044,2.044,0,0,0,1.945,2.128l9.853,0-.005,33.215a11.2,11.2,0,0,0,.158,1.184c.767,3.62,1.476,4.573,2.075,4.238.872.3,3.269.61,7.891.915,8.059.651,19.551,1.09,19.551,1.09l37.062.008a2.04,2.04,0,0,0,1.94-2.128l.01-37.744a3.713,3.713,0,0,0-.158-.648,4.878,4.878,0,0,0-1.3-2.145,111.823,111.823,0,0,0,11.307.791.778.778,0,0,0,.587-.236A.958.958,0,0,0,185.467,82.388ZM163.594,53.974c.466-3.046.81-7.072.937-8.679l5.65,0-.01,19.137c-2.624-3.046-5.036-5.825-6.966-8.044C163.336,55.781,163.466,55,163.594,53.974Zm9.277,28.917c-.77.113-1.369,1.414-1.684,2.461a1.2,1.2,0,0,0-.1.538V121.5H136.97s-21.16.711-20.276.8a62.3,62.3,0,0,0-7.62.777,14.918,14.918,0,0,0,1.035-3.774,4.091,4.091,0,0,0,.1-.98V82.981a2.049,2.049,0,0,0-1.95-2.137h-7.111l39.458-43.5,14.187,15.608s27.72,29.485,26.64,28.164c.261.266.5.516.757.78C176.363,82.168,172.455,82.514,172.871,82.891Zm-23.549,9.593a8.076,8.076,0,0,0-3.186-3.768,25.727,25.727,0,0,0-3.472-1.933,45.266,45.266,0,0,1-5.682-2.876c-2.978-1.994-2.138-3.867-2.226-3.947a3.328,3.328,0,0,1,.4-1.247,5.052,5.052,0,0,1,2.5-2.175,8.242,8.242,0,0,1,3.514-.552c.975.052,1.572.214,1.464.157,2.2.406,3.94,1.6,4.469,1.563.256-.005.2-.272-.331-.882a9.308,9.308,0,0,0-3.547-2.464c-.178-.077-.391-.11-.577-.176V70.461a7.1,7.1,0,0,0-.589-1.2,1,1,0,0,0-1.724-.016,4.774,4.774,0,0,0-.795,1.153l-.01,3.216a8.279,8.279,0,0,0-4.394,1.035,7.227,7.227,0,0,0-2.594,2.516,6.008,6.008,0,0,0-.664,1.447,4.893,4.893,0,0,0-.163.706,6.1,6.1,0,0,0-.093.788l-.01.184-.005.211.008.135.035.582a6.865,6.865,0,0,0,.937,2.8,8.722,8.722,0,0,0,2.3,2.444,35.613,35.613,0,0,0,6.186,3.268c2.083.991,4.59,2.252,5.294,3.845a4.17,4.17,0,0,1-.023,2.777,4.847,4.847,0,0,1-1.715,2.332A7.3,7.3,0,0,1,141.97,99.9a9.126,9.126,0,0,1-1.341.2,8.72,8.72,0,0,1-1.351-.014,11.437,11.437,0,0,1-4.066-1.156,5.473,5.473,0,0,1-1.3-.86.712.712,0,0,0-.231-.052c-.78.363-1.469-.409-1.93.008-.206.195-.506.239-.459.906a3.525,3.525,0,0,0,.343,1.365.8.8,0,0,0,.241.365,12.372,12.372,0,0,0,7.056,2.821c.183.016.393,0,.584.011v2.453a7.075,7.075,0,0,0,.589,1.195.993.993,0,0,0,1.722.016,4.74,4.74,0,0,0,.8-1.153l.008-2.785a10,10,0,0,0,3.577-1.59,8.268,8.268,0,0,0,2.948-3.8,8.687,8.687,0,0,0,.524-2.554,6.774,6.774,0,0,0,.02-.744l-.03-.522A6.664,6.664,0,0,0,149.322,92.484Z" transform="translate(-94.511 -32.195)" fill="#595b60"/>
</svg>
