<svg xmlns="http://www.w3.org/2000/svg" width="93.039" height="86.118" viewBox="0 0 93.039 86.118">
  <path id="Path_1422" data-name="Path 1422" d="M216.725,189.569l0-.019a1.564,1.564,0,0,0-.1-.516c-.01-.024-.029-.037-.041-.059a1.555,1.555,0,0,0-.609-.835l-12.1-7.663a1.4,1.4,0,0,0-1.509,0c-3.589,2.268-7.178,4.6-10.709,6.956a2.377,2.377,0,0,0-.335.364c-.714,1.058-.694,1.582-.34,1.827-.2.492-.42,2.582-.675,7.1-.17,2.51-.325,5.453-.442,8.16a1.192,1.192,0,0,0,.488,1.026l.085.056c4.118,2.856,7.484,5.185,7.484,5.185l4.448,2.816a1.391,1.391,0,0,0,1.5,0l12.107-7.658a1.683,1.683,0,0,0,.752-1.425l0-14.313c.015-.282.029-.558.039-.792a1.33,1.33,0,0,0-.039-.21Zm-15.24,20.04-1.361-.861-7.931-4.669c-.121-3.723-.262-6.945-.284-6.626-.2-3.1-.388-5.879-.6-7.176a9.854,9.854,0,0,0,1.267,1.329c1.687,1.649,4.264,3.672,4.264,3.672l4.645,2.944Zm1.57-14.207-4.473-2.829s-5.283-2.707-5.106-2.51c-.323-.138-.626-.253-.912-.351.41-.066.825-.16,1.175-.247a1.075,1.075,0,0,0,.4-.154c3.024-1.8,6-3.629,8.964-5.5l9.193,5.815-5.982,3.786Zm10.656,8.533-7.358,4.656c-.614.362-1.24.71-1.852,1.074V208.49c.068-.308.109-.529.109-.529s.01-7.307.012-9.665l3.434-2.17,5.654-3.454Zm34.61-42.062-.051,0-22.748-.343-66.847-.005h0a1.974,1.974,0,0,0-1.878,2.058l0,62.533a1.98,1.98,0,0,0,1.883,2.063l37.391,0c-.058,1.675-.092,2.656-.092,2.656v4.951L185.937,239.6a2.055,2.055,0,0,0-1.262,1.941v4.031a1.976,1.976,0,0,0,1.878,2.058l33.839.008a1.982,1.982,0,0,0,1.886-2.066v-4.031l-.027.343-8.892-3.382-.687-.231c-1.9-.609-2.985-.915-3.56-1.037.289-.614.595-3.164.9-8.556l.029-.5,30.592,0c.5-.016,1.492-.133,1.7-.168,3.354-.521,5.1-1.021,5.8-1.478l.01-.005c.451-.3.473-.574.182-.832.274-2.364.565-10.038.849-25.366.206-11.646.449-25.409.65-36.752v-.011A1.61,1.61,0,0,0,248.322,161.873Zm-39.037,75.791a2.736,2.736,0,0,0,.352.152l8.894,3.385-.024.343v1.962H188.442v-.492l10.025-3.813a2.069,2.069,0,0,0,1.267-1.954v-5.374s-.044-1.5-.107-3.693h8.266c.015.207.024.293.032.218.218,4.355.531,7.934.888,8.783C208.244,237.1,208.737,237.4,209.285,237.664Zm32.759-13.515a7.451,7.451,0,0,0-1.412-.1H160.563v-58.4h62.11l24-.282c.175,17.374.374,35.609.417,34.122.209,12.354.5,22.665.83,25.946A23.038,23.038,0,0,0,242.044,224.148Zm-31.909-52.759-42.842-.008h0a1.583,1.583,0,0,0-1.5,1.649l0,41.655a5.583,5.583,0,0,0,.121.731c1.3,4.914,2.4,1.941,2.825-.125a1.944,1.944,0,0,0,.073-.606v-40h40.214s23.925-.55,22.923-.625c9.586-.391,15.767-1.122.3-1.827C223.13,171.727,210.134,171.389,210.134,171.389Z" transform="translate(-156.792 -161.522)" fill="#595b60"/>
</svg>
