<svg xmlns="http://www.w3.org/2000/svg" width="101.582" height="74.452" viewBox="0 0 101.582 74.452">
  <path id="Path_1420" data-name="Path 1420" d="M195.048,255.332a2.216,2.216,0,0,0-1.727-2.537l-22.135-3.527-9.893-21.977a2.136,2.136,0,0,0-.931-1.02,1.968,1.968,0,0,0-2.742,1.02l-5.561,12.336a6.15,6.15,0,0,0-.2.864c-.788,6.119,1.983,3.657,3.5,1.728a1.956,1.956,0,0,0,.382-.6l3.718-8.254,8.532,18.946a2.1,2.1,0,0,0,1.545,1.231l19.09,3.042-13.811,14.751a2.413,2.413,0,0,0-.588,1.991l2.08,13.315s.635,3.527,1.463,8.13c-6.08-3.282-11.863-6.385-11.37-6.047-2.46-1.274-4.728-2.409-6.539-3.259l-.127-.061a.688.688,0,0,0-.715.084c-4.055,3.109-5.213,4.492.4,1.54,1.416.976,3.254,2.2,5.606,3.709,4.493,2.961,9.956,6.422,14.375,9.193a1.572,1.572,0,0,0,1.073.228,1.835,1.835,0,0,0,1.445-2.094l-.016-.124-1.345-10.611-2.125-13.6,16.021-17.109A2.3,2.3,0,0,0,195.048,255.332Zm-31.24,1.283a2.3,2.3,0,0,0,.6-1.283,2.22,2.22,0,0,0-1.732-2.542l-22.156-3.53c-2.608-5.784-5.511-11.657-8.469-17.143-.221-.39-.672-1.063-.765-1.193a19.693,19.693,0,0,0-2.3-2.935c-.087-.058-.134-.11-.2-.064a.723.723,0,0,0-.185.306.485.485,0,0,0,.037.332c-.229.416-.6,1.124-1.15,2.193-1.347,2.667-3.881,7.433-7.792,15.344-.638,1.306-1.305,2.664-1.988,4.059-7.581,1-15.812,2.08-22.723,2.987a1.655,1.655,0,0,0-.991.523,1.99,1.99,0,0,0-.016,2.632l.053.058,11.886,13.18,3.913,4.183-3.781,24.155a2.421,2.421,0,0,0,.2,1.419,1.957,1.957,0,0,0,2.753.936l19.8-11.4,19.8,11.406a1.869,1.869,0,0,0,1.295.225,2.223,2.223,0,0,0,1.666-2.583l-3.773-24.152Zm-34.05,27.7a1.916,1.916,0,0,0-1.909,0l-17.07,9.834,3.259-20.824a2.414,2.414,0,0,0-.591-1.991l-3.051-3.259L99.051,256.3c7.5-1.332,15.09-2.678,19.578-3.473l.061-.012a1.357,1.357,0,0,0,.989-.823c1.134-2.655,1.743-4.169,1.566-3.8,3.623-9.022,6.658-17.253,7.509-19.452.021.023.026.049.05.075.322,1.436,1.189,4.3,1.79,6.454a11.315,11.315,0,0,0,.372,1.187c1.975,5.532,3.987,10.629,6.373,15.861a2.121,2.121,0,0,0,1.545,1.228l19.09,3.042-13.811,14.751a2.423,2.423,0,0,0-.591,1.991l3.256,20.824Z" transform="translate(-93.488 -226.04)" fill="#595b60"/>
</svg>
