<svg xmlns="http://www.w3.org/2000/svg" width="28" height="30.877" viewBox="0 0 28 30.877">
  <g id="EHO-03" transform="translate(-82 -127.5)">
    <path id="Path_18" data-name="Path 18" d="M82,136.234,95.981,127.5,110,136.234v2.984h-2.05v10.426H84.013V139.212H82Zm13.981-5.254-8.809,5.354v10.138h17.649V136.3Zm-4.853,10.5H100.9v2.8H91.129Zm0-3.781H100.9v2.765H91.129Z" fill="#fff"/>
    <g id="Group_12" data-name="Group 12" transform="translate(83.58 151.832)">
      <path id="Path_19" data-name="Path 19" d="M133.454,516.4v.4h-.865v.571h.815v.4h-.815v.652h.9v.4H132.1v-2.42h1.354Z" transform="translate(-130.539 -516.35)" fill="#fff"/>
      <path id="Path_20" data-name="Path 20" d="M158.636,518.559l-.288-.3a.528.528,0,0,1-.15.038,1.349,1.349,0,0,1-.176.013c-.734,0-.821-.52-.821-1.254s.094-1.254.821-1.254.821.52.821,1.254a1.751,1.751,0,0,1-.188.984l.263.263Zm-.608-.614c.288,0,.332-.245.332-.9s-.05-.9-.332-.9-.332.251-.332.9S157.739,517.944,158.028,517.944Z" transform="translate(-154.065 -515.787)" fill="#fff"/>
      <path id="Path_21" data-name="Path 21" d="M188.089,516.4v1.687c0,.238.056.42.282.42s.282-.182.282-.42V516.4h.489v1.687a.69.69,0,0,1-.771.777c-.395,0-.771-.132-.771-.777V516.4Z" transform="translate(-182.559 -516.35)" fill="#fff"/>
      <path id="Path_22" data-name="Path 22" d="M215.046,516.4h.6l.639,2.42h-.508l-.113-.514h-.646l-.113.514H214.4Zm.063,1.511h.476l-.232-1.085h-.006Z" transform="translate(-207.679 -516.35)" fill="#fff"/>
      <path id="Path_23" data-name="Path 23" d="M247.2,518.82V516.4h.489v2.019h.865v.4H247.2Z" transform="translate(-238.423 -516.35)" fill="#fff"/>
      <path id="Path_24" data-name="Path 24" d="M285.2,516.4h.489v.922h.571V516.4h.489v2.42h-.5v-1.072h-.564v1.072H285.2Z" transform="translate(-274.04 -516.35)" fill="#fff"/>
      <path id="Path_25" data-name="Path 25" d="M315.221,515.7c.734,0,.821.52.821,1.254s-.094,1.254-.821,1.254-.821-.52-.821-1.254S314.494,515.7,315.221,515.7Zm0,2.15c.288,0,.332-.245.332-.9s-.05-.9-.332-.9-.332.251-.332.9S314.933,517.85,315.221,517.85Z" transform="translate(-301.409 -515.694)" fill="#fff"/>
      <path id="Path_26" data-name="Path 26" d="M345.189,516.4v1.687c0,.238.056.42.282.42s.282-.182.282-.42V516.4h.489v1.687a.69.69,0,0,1-.771.777c-.395,0-.771-.132-.771-.777V516.4Z" transform="translate(-329.81 -516.35)" fill="#fff"/>
      <path id="Path_27" data-name="Path 27" d="M373,517.318v.069c0,.226.063.37.32.37a.276.276,0,0,0,.288-.3c0-.219-.113-.3-.433-.414-.433-.15-.633-.326-.633-.734a.661.661,0,0,1,.746-.708c.433,0,.746.188.746.652v.069h-.47c0-.226-.075-.357-.263-.357a.249.249,0,0,0-.276.282c0,.15.044.238.251.326l.376.163a.615.615,0,0,1,.458.639c0,.514-.313.74-.84.74-.552,0-.771-.257-.771-.7v-.094Z" transform="translate(-355.867 -515.6)" fill="#fff"/>
      <path id="Path_28" data-name="Path 28" d="M402.7,518.82V516.4h.489v2.42Z" transform="translate(-384.173 -516.35)" fill="#fff"/>
      <path id="Path_29" data-name="Path 29" d="M416.858,516.4l.589,1.655h.006V516.4h.445v2.42h-.552l-.6-1.693h-.006v1.693H416.3V516.4Z" transform="translate(-396.921 -516.35)" fill="#fff"/>
      <path id="Path_30" data-name="Path 30" d="M447.991,516.371c0-.182-.082-.408-.276-.408-.238,0-.332.245-.332.846,0,.583.056.947.332.947a.358.358,0,0,0,.3-.389v-.245h-.32v-.357h.79v1.3h-.357v-.226h-.006a.544.544,0,0,1-.508.27c-.6,0-.715-.445-.715-1.285,0-.815.188-1.229.815-1.229a.666.666,0,0,1,.752.765h-.476Z" transform="translate(-425.602 -515.6)" fill="#fff"/>
      <path id="Path_31" data-name="Path 31" d="M108.285,567.3c.959,0,1.085.683,1.085,1.649s-.119,1.649-1.085,1.649-1.085-.683-1.085-1.649S107.325,567.3,108.285,567.3Zm0,2.834c.376,0,.439-.326.439-1.179s-.063-1.179-.439-1.179-.439.332-.439,1.179S107.908,570.134,108.285,570.134Z" transform="translate(-107.2 -564.059)" fill="#fff"/>
      <path id="Path_32" data-name="Path 32" d="M147.8,568.3h1.122a.842.842,0,0,1,.871.953.892.892,0,0,1-1.009.959h-.345v1.266H147.8Zm.639,1.436h.282c.251,0,.426-.15.426-.476s-.125-.489-.445-.489h-.263Z" transform="translate(-145.255 -564.996)" fill="#fff"/>
      <path id="Path_33" data-name="Path 33" d="M184.6,568.3h1.122a.842.842,0,0,1,.871.953.892.892,0,0,1-1.009.959h-.345v1.266H184.6Zm.646,1.436h.282c.251,0,.426-.15.426-.476s-.125-.489-.445-.489h-.27v.966Z" transform="translate(-179.747 -564.996)" fill="#fff"/>
      <path id="Path_34" data-name="Path 34" d="M221.485,567.3c.959,0,1.085.683,1.085,1.649s-.119,1.649-1.085,1.649-1.085-.683-1.085-1.649S220.519,567.3,221.485,567.3Zm0,2.834c.376,0,.439-.326.439-1.179s-.063-1.179-.439-1.179-.439.332-.439,1.179S221.1,570.134,221.485,570.134Z" transform="translate(-213.303 -564.059)" fill="#fff"/>
      <path id="Path_35" data-name="Path 35" d="M261,568.3h1.185a.754.754,0,0,1,.846.821c0,.42-.169.708-.527.784v.006c.439.056.5.3.514.972.006.332.025.508.144.571v.025h-.7a.623.623,0,0,1-.082-.332l-.019-.608c-.006-.251-.119-.4-.376-.4h-.345v1.342H261Zm.639,1.392h.27c.307,0,.483-.132.483-.477a.393.393,0,0,0-.445-.439h-.3v.915Z" transform="translate(-251.357 -564.996)" fill="#fff"/>
      <path id="Path_36" data-name="Path 36" d="M298.531,568.3v.527h-.7v2.652h-.64v-2.652h-.7V568.3Z" transform="translate(-284.632 -564.996)" fill="#fff"/>
      <path id="Path_37" data-name="Path 37" d="M333.239,568.3v2.219c0,.313.075.552.376.552s.376-.238.376-.552V568.3h.639v2.219a.908.908,0,0,1-1.016,1.022c-.52,0-1.016-.176-1.016-1.022V568.3Z" transform="translate(-318.468 -564.996)" fill="#fff"/>
      <path id="Path_38" data-name="Path 38" d="M372.234,568.3l.777,2.176h.006V568.3h.589v3.179h-.727l-.784-2.226h-.006v2.226H371.5V568.3Z" transform="translate(-354.929 -564.996)" fill="#fff"/>
      <path id="Path_39" data-name="Path 39" d="M412.7,571.479V568.3h.639v3.179Z" transform="translate(-393.546 -564.996)" fill="#fff"/>
      <path id="Path_40" data-name="Path 40" d="M429.831,568.3v.527h-.7v2.652H428.5v-2.652h-.7V568.3Z" transform="translate(-407.7 -564.996)" fill="#fff"/>
      <path id="Path_41" data-name="Path 41" d="M462.021,568.3l.42,1.229h.006l.445-1.229h.7l-.828,1.925v1.254h-.639v-1.254L461.3,568.3Z" transform="translate(-439.099 -564.996)" fill="#fff"/>
    </g>
  </g>
</svg>
