<svg xmlns="http://www.w3.org/2000/svg" width="220.805" height="106.216" viewBox="0 0 220.805 106.216">
  <g id="Group_339" data-name="Group 339" transform="translate(-851 -4177)">
    <g id="Group_338" data-name="Group 338">
      <g id="NVP_Inc-Logo" data-name="NVP Inc-Logo" transform="translate(836.4 4166.9)">
        <path id="Path_42" data-name="Path 42" d="M20.171,67.01V61.25L15.739,67.01Zm59.886.506.063.063H14.6L47.328,24.85h0L87.78,52.64,80.056,67.517ZM20.93,67.01h12.6V60.553H20.93V67.01Zm26.651,0h12.6V60.553h-12.6V67.01Zm13.294,0h12.6V60.553h-12.6V67.01Zm-6.52-7.153h12.6V53.4h-12.6v6.457Zm-13.294,0h12.6V53.4h-12.6v6.457Zm-13.357,0H40.3V53.4H27.7v6.457ZM26.185,53.4l-4.938,6.52h5.761V53.4Zm5.507-7.153-5,6.457h6.774V46.247ZM34.224,52.7h12.6V46.247h-12.6V52.7Zm13.357,0h12.6V46.247h-12.6V52.7Zm20.384,0-5-6.457H60.939V52.7h7.027ZM62.395,45.55l-4.938-6.52h-3.1v6.52Zm-21.333,0h12.6V39.03h-12.6v6.52ZM37.2,39.03l-4.938,6.52H40.3V39.03ZM56.95,38.4l-5-6.52H47.581V38.4ZM43.213,31.18H51.38l-4.051-5.318L43.213,31.18Zm-.506.7-5,6.52h9.116v-6.52ZM34.224,67.01h12.6V60.553h-12.6V67.01Zm40.008-6.14v6.14h4.685l-4.685-6.14Zm-.76-1.013-5-6.52h-.76v6.52Zm6.2-11.015L74.8,44.158l5.318,3.735-.443.95ZM66.889,38.713l-6.14-4.178-.19.443L66.13,40.3l.76-1.583Zm11.2,13.167-5.507-5.444L73.916,43.9l5.507,5.444-1.329,2.532ZM52.456,30.99l.76-1.519-4.368-3.1,3.608,4.621ZM64.484,43.271l-5.571-5.318,1.329-2.532,5.571,5.318-1.329,2.532ZM76.511,54.919,71,49.475l1.329-2.532,5.507,5.444-1.329,2.532ZM58.47,38.84l.19-.443,5.571,5.318-.76,1.519-5-6.394ZM74.929,57.958l1.329-2.532-5.507-5.444-1.329,2.532,5.507,5.444Zm-.253.443-4.811-4.558,4.3,5.571.506-1.013Zm8.23-8.673,3.672,3.545.38-.76-4.051-2.785Zm-9.5-6.52-5.887-4.051-.127.253,5.318,5.128.7-1.329Zm11.585,13.1-5.571-5.381L80.753,48.4l5.571,5.381-1.329,2.532ZM60.052,34.092l-6.077-4.241-.38.7L59.1,35.865l.95-1.773Zm11.078,13.42-5.318-5.128,1.329-2.532,5.318,5.128-1.329,2.532ZM83.412,59.351l1.329-2.532L79.17,51.438,77.841,53.97l5.571,5.381ZM52.962,31.687l.38-.633,5.507,5.318L57.9,38.08l-4.938-6.394ZM69.548,50.551l1.329-2.532L65.56,42.892,64.23,45.424l5.318,5.128ZM81.829,62.389l1.329-2.532-5.571-5.381-1.329,2.532,5.571,5.381Zm-17.915-16.4,4.748,6.2.633-1.2-5.318-5.128-.063.127ZM80.246,65.365l-5.571-5.381,1.329-2.532,5.571,5.381-1.329,2.532Zm-.253.506L76.7,62.706l2.975,3.862ZM93.287,52.2H88.856l4.431-5.761V52.2Zm59.886.506.063.063H87.716L120.508,10.1h0L160.9,37.891,153.173,52.7ZM94.047,52.2h12.6V45.74h-12.6V52.2Zm26.651,0h12.6V45.74H120.7V52.2Zm13.294,0h12.6V45.74h-12.6V52.2Zm-6.52-7.153h12.6V38.587h-12.6v6.457Zm-13.294,0h12.6V38.587h-12.6v6.457Zm-13.357,0h12.6V38.587h-12.6v6.457ZM99.3,38.587l-4.938,6.52h5.761v-6.52Zm5.507-7.217-4.938,6.52h6.774V31.37Zm2.532,6.52h12.6V31.37h-12.6v6.52Zm13.357,0h12.6V31.37H120.7v6.52Zm20.321,0-5-6.52h-2.026v6.52Zm-5.507-7.153-5-6.52h-3.1v6.52Zm-21.333,0h12.6v-6.52h-12.6v6.52Zm-3.862-6.52-4.938,6.52h8.04v-6.52ZM130,23.52,125.066,17H120.7v6.52ZM116.33,16.367H124.5l-4.115-5.381-4.051,5.381Zm-.506.7-4.938,6.52h9.052v-6.52ZM107.341,52.2h12.6V45.74h-12.6V52.2Zm40.008-6.14V52.2h4.685l-4.685-6.14Zm-.823-1.013-5-6.52h-.76v6.52Zm6.267-11.015-4.874-4.685,5.318,3.735-.443.95ZM140.005,23.837l-6.141-4.178-.19.443,5.571,5.318.76-1.583Zm11.2,13.231L145.7,31.623l1.329-2.532,5.507,5.444-1.329,2.532Zm-25.638-20.89.823-1.519-4.368-3.1,3.545,4.621ZM137.6,28.458l-5.571-5.318,1.329-2.532,5.571,5.318L137.6,28.458Zm12.028,11.648-5.507-5.444,1.329-2.532,5.507,5.444-1.329,2.532Zm-18.1-16.079.19-.443,5.571,5.318-.76,1.519-5-6.394Zm16.522,19.055,1.329-2.532-5.507-5.444-1.329,2.532,5.507,5.444Zm-.253.506-4.811-4.621,4.3,5.571.506-.95Zm8.23-8.673,3.672,3.545.38-.76-4.051-2.785Zm-9.559-6.52-5.887-4.051-.063.19,5.318,5.128.633-1.266ZM158.11,41.5l-5.571-5.381,1.329-2.532,5.571,5.381L158.11,41.5Zm-25.005-22.22-6.077-4.241-.38.7,5.507,5.318.95-1.773ZM144.247,32.7l-5.318-5.128,1.329-2.532,5.318,5.128L144.247,32.7Zm12.281,11.775,1.329-2.532-5.571-5.381-1.329,2.532,5.571,5.381Zm-30.449-27.6.38-.633,5.507,5.318-.886,1.709-5-6.394Zm16.586,18.865,1.329-2.532-5.318-5.128-1.329,2.532,5.318,5.128Zm12.281,11.775,1.329-2.532L150.7,39.6l-1.329,2.532,5.571,5.381ZM137.03,31.18l4.748,6.2.633-1.2-5.318-5.128-.063.127Zm16.332,19.371-5.571-5.381,1.329-2.532,5.571,5.381-1.329,2.532Zm-.253.443-3.292-3.165,2.975,3.862Z" transform="translate(0)" fill="#fff"/>
        <path id="Path_43" data-name="Path 43" d="M161.389,85.433l-.19.506a1.031,1.031,0,0,1-.19.38,4.305,4.305,0,0,1-.823.253,2.044,2.044,0,0,0-1.076.633c-.19.253-.253.506-.38.7a2.81,2.81,0,0,0-.127.823v19.561a1.077,1.077,0,0,1-.063.443c0,.127-.063.19-.19.316a1.105,1.105,0,0,1-.76.253h-1.646a1.236,1.236,0,0,1-.443-.063l-.38-.19a5.55,5.55,0,0,1-.443-.506l-13.99-17.6v14.117a7.737,7.737,0,0,0,.063,1.393.879.879,0,0,0,.317.633,3.843,3.843,0,0,0,1.773.7,1,1,0,0,1,.506.19v.19a.478.478,0,0,1-.063.253l-.127.38c0,.063-.063.127-.063.19s-.063.127-.127.19a.915.915,0,0,1-.443.127h-6.457c-.253,0-.443-.063-.506-.19q-.095-.095,0-.38l.253-.7c0-.063.063-.127.19-.253a8.253,8.253,0,0,0,.823-.19,2.942,2.942,0,0,0,.57-.19,3.1,3.1,0,0,0,.76-.95,3.349,3.349,0,0,0,.127-1.266V88.662l-.7-.7a4.436,4.436,0,0,0-.633-.506c-.19-.127-.57-.317-1.076-.57a7.839,7.839,0,0,1-1.393-.7c-.063-.127,0-.253.063-.506l.19-.38a3.748,3.748,0,0,1,.253-.38c.063-.063.253-.063.506-.063h5.761a2.786,2.786,0,0,1,.633.127,1.139,1.139,0,0,1,.57.38c.063.063.317.38.76.886l13.167,16.4V88.6c0-.38-.063-.7-.063-.95a1.193,1.193,0,0,0-.253-.57,3.688,3.688,0,0,0-1.646-.7c-.38-.127-.57-.19-.57-.253-.063-.063,0-.253.063-.443l.127-.38c0-.19.127-.253.19-.38a.915.915,0,0,1,.443-.127h6.52a.329.329,0,0,1,.253.127,1.782,1.782,0,0,0-.063.506Z" transform="translate(-43.983 -27.412)" fill="#fff"/>
        <path id="Path_44" data-name="Path 44" d="M208.405,85.48l-.253.7a.329.329,0,0,1-.127.253c-.38.19-.633.317-.95.506a2.811,2.811,0,0,0-.7.506,3.945,3.945,0,0,0-.57.76c-.127.317-.317.633-.443,1.013l-8.1,19.561c-.063.063-.063.19-.127.253s-.127.19-.253.317a.719.719,0,0,1-.506.19h-1.836a.571.571,0,0,1-.317-.063.784.784,0,0,0-.19-.127.873.873,0,0,1-.19-.253c0-.063-.063-.19-.063-.253l-7.217-18.865c-.316-.823-.57-1.393-.76-1.836-.19-.38-.316-.633-.443-.7a2.378,2.378,0,0,0-1.013-.57,6.5,6.5,0,0,0-.886-.253.316.316,0,0,1,0-.38l.253-.823.19-.19c.063-.063.253-.063.443-.063h8.8c.063,0,.127.063.19.127a.283.283,0,0,1,0,.317l-.19.57c0,.127-.063.19-.063.253l-.127.127a6.673,6.673,0,0,0-.823.506,1.252,1.252,0,0,0-.7.823.8.8,0,0,0-.063.38,2.786,2.786,0,0,0,.127.633c.063.19.19.443.253.7l5.318,14.433,6.077-15,.19-.57a1.753,1.753,0,0,0,.063-.57.945.945,0,0,0-.19-.633,3.211,3.211,0,0,0-1.013-.57c-.38-.127-.57-.19-.57-.317a.283.283,0,0,1,0-.317l.253-.633c.063-.063.063-.19.127-.19a.818.818,0,0,1,.506-.127h5.444c.253,0,.443.063.506.19-.063,0-.063.063-.063.19Z" transform="translate(-61.943 -27.522)" fill="#fff"/>
        <path id="Path_45" data-name="Path 45" d="M247.714,91.394a6.911,6.911,0,0,1-2.469,5.444,9.154,9.154,0,0,1-5.951,2.026h-1.583l-.38-.823a.9.9,0,0,1-.127-.38c-.063-.127,0-.19.063-.19a5.734,5.734,0,0,0,2.026-.38,4.876,4.876,0,0,0,2.216-1.646,6.019,6.019,0,0,0,1.076-3.672,4.959,4.959,0,0,0-1.139-3.292,3.63,3.63,0,0,0-2.975-1.393h-3.039v18.295a5.814,5.814,0,0,0,.063,1.139,1.251,1.251,0,0,0,.38.7,4.073,4.073,0,0,0,1.646.7c.317.063.506.19.506.253s.063.127.063.19a.38.38,0,0,1-.063.253l-.127.38a1.031,1.031,0,0,1-.19.38.981.981,0,0,1-.506.127h-9.052c-.127-.063-.19-.063-.19-.19a.221.221,0,0,0-.063-.127v-.19l.253-.7c0-.063,0-.063.063-.127a.221.221,0,0,1,.127-.063,4.428,4.428,0,0,1,.7-.253q.665-.19.76-.38a1.684,1.684,0,0,0,.76-.95,9.592,9.592,0,0,0,.127-1.773V88.8a2.6,2.6,0,0,0-.063-.7,1.3,1.3,0,0,0-.443-.886,2.2,2.2,0,0,0-.95-.506c-.823-.253-1.2-.38-1.2-.443a.221.221,0,0,0-.063-.127.847.847,0,0,1,.063-.317l.127-.38a.807.807,0,0,1,.253-.38.475.475,0,0,1,.317-.063H239.1c2.912,0,5.128.57,6.584,1.646a5.768,5.768,0,0,1,2.026,4.748Z" transform="translate(-78.272 -27.485)" fill="#fff"/>
        <path id="Path_46" data-name="Path 46" d="M257.42,117.1a2.11,2.11,0,0,0-.7-1.393,1.9,1.9,0,0,0-1.393-.506,2.39,2.39,0,0,0-1.709.633,1.75,1.75,0,0,0-.76,1.393,3.905,3.905,0,0,0,.127,1.139,15.187,15.187,0,0,1,.253,1.836,7.1,7.1,0,0,1-.76,2.912,8.34,8.34,0,0,1-1.583,2.532l1.266,1.013,3.1-4.368a14.936,14.936,0,0,0,1.329-2.279,5.728,5.728,0,0,0,.823-2.6c0-.19,0-.253,0-.317Z" transform="translate(-86.712 -38.567)" fill="#fff"/>
        <path id="Path_47" data-name="Path 47" d="M285.919,85.4l-.19.506a1.031,1.031,0,0,1-.19.38,1.988,1.988,0,0,1-.76.253,2.159,2.159,0,0,0-1.646,2.216v16.332a6.565,6.565,0,0,0,.063,1.266,1.066,1.066,0,0,0,.38.7,3.045,3.045,0,0,0,1.709.7,1.387,1.387,0,0,1,.506.19v.19a.38.38,0,0,1-.063.253l-.127.38a1.031,1.031,0,0,1-.19.38.818.818,0,0,1-.506.127H276.17a.818.818,0,0,1-.506-.127.233.233,0,0,1-.063-.19v-.19l.253-.7a.874.874,0,0,1,.19-.253s.19-.063.633-.19.7-.19.76-.317a2.507,2.507,0,0,0,.76-.95,3.918,3.918,0,0,0,.127-1.329V88.435a3.644,3.644,0,0,0-.063-.95,1.006,1.006,0,0,0-.38-.57,4.851,4.851,0,0,0-1.646-.633c-.317-.063-.506-.127-.57-.253v-.19a1.288,1.288,0,0,0,.063-.317l.127-.38a.581.581,0,0,1,.253-.38.474.474,0,0,1,.316-.063h9.116a.168.168,0,0,1,.19.19.711.711,0,0,1,.19.506Z" transform="translate(-95.776 -27.375)" fill="#fff"/>
        <path id="Path_48" data-name="Path 48" d="M315.459,112.239l-.19.57c-.063.063-.127.127-.127.19-.127.063-.19.127-.317.127H306.6a.623.623,0,0,1-.506-.19v-.317l.19-.57a.669.669,0,0,1,.38-.443,3.178,3.178,0,0,0,1.2-.506,1.139,1.139,0,0,0,.38-.57,3.624,3.624,0,0,0,.063-.886v-7.407a5.982,5.982,0,0,0-.443-2.6,1.979,1.979,0,0,0-1.9-1.266c-1.709,0-2.975.95-3.862,2.849a13.341,13.341,0,0,0-1.076,5.634v2.912a1.737,1.737,0,0,0,.127.823.922.922,0,0,0,.38.57,4.068,4.068,0,0,0,1.013.443c.506.127.76.253.76.443v.127l-.253.633c-.063.063-.127.127-.127.19a.623.623,0,0,1-.506.19h-8.166c-.19,0-.38-.063-.38-.127a.283.283,0,0,1,0-.317l.19-.633a1.051,1.051,0,0,1,.7-.506,3.386,3.386,0,0,0,1.013-.38,2.274,2.274,0,0,0,.443-.633,4.4,4.4,0,0,0,.127-1.013V99.135a1.784,1.784,0,0,0-.063-.7,1.34,1.34,0,0,0-.19-.443,1.929,1.929,0,0,0-1.2-.57c-.633-.127-.95-.317-.823-.57l.253-.633c.063-.127.127-.19.19-.317a.98.98,0,0,1,.506-.127h5.381a1.192,1.192,0,0,1,.506.127.329.329,0,0,1,.127.253c0,.127.063.19.063.38v2.849a5.212,5.212,0,0,1,.823-1.076,11.016,11.016,0,0,1,2.342-1.9,8.069,8.069,0,0,1,3.735-1.013,4.67,4.67,0,0,1,3.925,1.646,5.958,5.958,0,0,1,1.076,3.735v8.926c.063.7.19,1.2.506,1.393a3.1,3.1,0,0,0,1.2.506c.57.127.823.253.823.443a.277.277,0,0,1-.063.19Z" transform="translate(-102.464 -31.302)" fill="#fff"/>
        <path id="Path_49" data-name="Path 49" d="M344.62,109.617V110c-.063.127-.127.19-.127.253l-.633,1.329-.38.76a2.209,2.209,0,0,1-.38.57,7.024,7.024,0,0,1-1.773.57,13.761,13.761,0,0,1-2.532.317,9.2,9.2,0,0,1-7.09-2.785,9.4,9.4,0,0,1-2.406-6.71,8.252,8.252,0,0,1,2.406-6.077c1.836-1.836,4.431-2.722,7.85-2.722a14.221,14.221,0,0,1,2.6.253c1.266.19,1.962.506,2.089.823.063.063.063.19.127.253a2.742,2.742,0,0,1,.063.317v2.722a.233.233,0,0,1-.063.19c0,.063-.063.063-.063.127a.221.221,0,0,1-.127.063l-.443.253c-.127.063-.19.063-.19.127a.119.119,0,0,1-.19,0,6,6,0,0,0-1.519-2.279,3.442,3.442,0,0,0-2.469-.95,4,4,0,0,0-3.672,2.216,8.384,8.384,0,0,0-1.2,4.621,9.333,9.333,0,0,0,1.139,4.811,4.3,4.3,0,0,0,3.925,2.279,4.846,4.846,0,0,0,2.469-.7c.633-.506,1.266-1.013,1.9-1.583a.381.381,0,0,1,.253.063l.443.253c-.127.063-.063.127,0,.253Z" transform="translate(-115.482 -31.338)" fill="#fff"/>
        <path id="Path_50" data-name="Path 50" d="M360.758,119.079a2.159,2.159,0,0,1-.7,1.646,2.3,2.3,0,0,1-1.646.7,1.946,1.946,0,0,1-1.583-.7,2.242,2.242,0,0,1-.633-1.646,2.1,2.1,0,0,1,.633-1.583,2.158,2.158,0,0,1,1.583-.7,2.3,2.3,0,0,1,1.646.7A2.158,2.158,0,0,1,360.758,119.079Z" transform="translate(-125.353 -39.154)" fill="#fff"/>
      </g>
      <path id="Path_1425" data-name="Path 1425" d="M89.1,15.308A6.918,6.918,0,0,0,94.2,17.216c3.24,0,4.806-1.656,4.806-3.852,0-2.664-2.52-3.258-4.5-3.708-1.386-.324-2.394-.576-2.394-1.386,0-.72.612-1.224,1.764-1.224A5.122,5.122,0,0,1,97.31,8.36l1.422-1.872a6.678,6.678,0,0,0-4.68-1.674c-2.826,0-4.554,1.62-4.554,3.618,0,2.682,2.52,3.222,4.482,3.672,1.386.324,2.43.63,2.43,1.53,0,.684-.684,1.35-2.088,1.35a5.264,5.264,0,0,1-3.816-1.62ZM100.73,17h2.556V4.994H100.73Zm13.212,0h2.466V4.994h-2.556V12.77L108.29,4.994h-2.628V17h2.556V8.936Zm10.566.216a5.573,5.573,0,0,0,5.112-2.952l-2.2-1.062a3.255,3.255,0,0,1-2.916,1.746,3.721,3.721,0,0,1-3.672-3.942,3.721,3.721,0,0,1,3.672-3.942,3.288,3.288,0,0,1,2.916,1.746l2.2-1.08A5.54,5.54,0,0,0,124.508,4.8a6.077,6.077,0,0,0-6.3,6.21A6.077,6.077,0,0,0,124.508,17.216ZM131.15,17h8.5V14.786h-5.94V12h5.814V9.8h-5.814V7.19h5.94v-2.2h-8.5Zm17.568,0h2.556V4.994h-2.232l-3.78,3.8,1.458,1.53,2-2.034Zm4.95-1.044A5.24,5.24,0,0,0,157.2,17.2c3.546,0,5.58-2.574,5.58-6.192,0-3.4-1.53-6.21-5.166-6.21C154.874,4.8,153,6.578,153,8.918a3.814,3.814,0,0,0,4.1,3.888,3.971,3.971,0,0,0,3.1-1.548v.252c0,1.818-1.08,3.456-3.006,3.456a3.242,3.242,0,0,1-2.394-.918Zm6.516-6.426a3.079,3.079,0,0,1-2.358,1.116c-1.152,0-2.214-.558-2.214-1.836a1.937,1.937,0,0,1,2.106-1.8A2.484,2.484,0,0,1,160.184,9.53Zm3.852,4.356c0,2.25,2.3,3.33,4.824,3.33s4.824-1.1,4.824-3.33a3.464,3.464,0,0,0-2.592-3.078,3.037,3.037,0,0,0,2.394-2.826c0-2.25-2.412-3.168-4.626-3.168-2.232,0-4.626.918-4.626,3.168a3.02,3.02,0,0,0,2.376,2.826A3.445,3.445,0,0,0,164.036,13.886Zm6.84-5.508c0,.936-1.278,1.35-2.016,1.458-.738-.108-2.034-.522-2.034-1.458,0-.846.846-1.368,2.034-1.368C170.03,7.01,170.876,7.532,170.876,8.378Zm.216,5.2c0,.882-1.008,1.44-2.232,1.44-1.26,0-2.232-.558-2.232-1.44,0-1.044,1.476-1.548,2.232-1.638C169.6,12.032,171.092,12.536,171.092,13.58Zm4.428,2.376a5.24,5.24,0,0,0,3.528,1.242c3.546,0,5.58-2.574,5.58-6.192,0-3.4-1.53-6.21-5.166-6.21-2.736,0-4.608,1.782-4.608,4.122a3.814,3.814,0,0,0,4.1,3.888,3.971,3.971,0,0,0,3.1-1.548v.252c0,1.818-1.08,3.456-3.006,3.456a3.242,3.242,0,0,1-2.394-.918Zm6.516-6.426a3.079,3.079,0,0,1-2.358,1.116c-1.152,0-2.214-.558-2.214-1.836a1.937,1.937,0,0,1,2.106-1.8A2.484,2.484,0,0,1,182.036,9.53Z" transform="translate(824 4266)" fill="#52d0d1"/>
    </g>
  </g>
</svg>
