<svg xmlns="http://www.w3.org/2000/svg" width="285.855" height="100.967" viewBox="0 0 285.855 100.967">
  <g id="NVP_Inc-Logo-white" data-name="NVP Inc-Logo-white" transform="translate(-14.6 -10.1)">
    <path id="Path_57" data-name="Path 57" d="M21.812,83.776V76.319l-5.737,7.458Zm77.528.656h0l-84.74.082L56.97,29.2h0l52.368,35.978-10,19.259ZM22.8,83.776H39.1V75.417H22.8v8.359Zm34.5,0H73.607V75.417H57.3v8.359Zm17.21,0H90.817V75.417H74.508v8.359Zm-8.441-9.261H82.376V66.156H66.067v8.359Zm-17.21,0H65.165V66.156H48.857v8.359Zm-17.292,0H47.873V66.156H31.564v8.359ZM29.6,66.156,23.205,74.6h7.458V66.156Zm7.13-9.261-6.474,8.359h8.769V56.9Zm3.278,8.359H56.314V56.9H40.006v8.359Zm17.292,0H73.607V56.9H57.3v8.359Zm26.389,0L77.213,56.9H74.59v8.359Zm-7.212-9.261-6.392-8.441H66.067v8.441Zm-27.618,0H65.165V47.553H48.857v8.441Zm-5-8.441-6.392,8.441H47.873V47.553Zm25.57-.82-6.474-8.441H57.3v8.441ZM51.643,37.391H62.215L56.97,30.506l-5.327,6.884Zm-.656.9-6.474,8.441h11.8V38.292ZM40.006,83.776H56.314V75.417H40.006v8.359ZM91.8,75.827v7.95h6.065L91.8,75.827Zm-.983-1.311-6.474-8.441h-.983v8.441Zm8.031-14.26-6.31-6.065,6.884,4.835-.574,1.229ZM82.294,47.143l-7.95-5.409-.246.574,7.212,6.884.983-2.049ZM96.8,64.189l-7.13-7.048,1.721-3.278,7.13,7.048L96.8,64.189ZM63.608,37.145l.983-1.967-5.655-4.016,4.671,5.983Zm15.571,15.9L71.968,46.16l1.721-3.278L80.9,49.766,79.18,53.044ZM94.751,68.123l-7.13-7.048L89.342,57.8l7.13,7.048-1.721,3.278ZM71.394,47.307l.246-.574,7.212,6.884-.983,1.967-6.474-8.277ZM92.7,72.057l1.721-3.278-7.13-7.048-1.721,3.278,7.13,7.048Zm-.328.574-6.228-5.9,5.573,7.212.656-1.311ZM103.028,61.4l4.753,4.589.492-.983L103.028,61.4ZM90.735,52.962l-7.622-5.245-.164.328,6.884,6.638.9-1.721Zm15,16.964L98.521,62.96l1.721-3.278,7.212,6.966-1.721,3.278ZM73.443,41.16,65.575,35.67l-.492.9,7.13,6.884,1.229-2.295ZM87.785,58.535,80.9,51.9l1.721-3.278,6.884,6.638-1.721,3.278Zm15.9,15.325,1.721-3.278-7.212-6.966-1.721,3.278,7.212,6.966ZM64.264,38.046l.492-.82,7.13,6.884-1.229,2.213-6.392-8.277ZM85.736,62.468l1.721-3.278-6.884-6.638L78.852,55.83l6.884,6.638Zm15.9,15.325,1.721-3.278L96.144,67.55l-1.721,3.278,7.212,6.966ZM78.442,56.568,84.589,64.6l.82-1.557L78.524,56.4l-.082.164ZM99.586,81.646,92.374,74.68,94.1,71.4l7.212,6.966-1.721,3.278Zm-.328.656L95,78.2l3.852,5Zm17.21-17.7h-5.737l5.737-7.458V64.6ZM194,65.255l.082.082H109.257L151.709,10.1h0L204,46.078,194,65.255ZM117.452,64.6h16.309V56.24H117.452V64.6Zm34.5,0h16.309V56.24H151.954V64.6Zm17.21,0h16.309V56.24H169.165V64.6Zm-8.441-9.261h16.309V46.979H160.724v8.359Zm-17.21,0h16.309V46.979H143.513v8.359Zm-17.292,0H142.53V46.979H126.221v8.359Zm-1.967-8.359-6.392,8.441h7.458V46.979Zm7.13-9.343-6.392,8.441h8.769V37.636Zm3.278,8.441h16.309V37.636H134.662v8.441Zm17.292,0h16.309V37.636H151.954v8.441Zm26.307,0-6.474-8.441h-2.623v8.441Zm-7.13-9.261-6.474-8.441h-4.016v8.441Zm-27.618,0h16.309V28.376H143.513v8.441Zm-5-8.441-6.392,8.441H142.53V28.376Zm25.488-.9-6.392-8.441h-5.655v8.441Zm-17.7-9.261h10.572l-5.327-6.966L146.3,18.213Zm-.656.9-6.392,8.441h11.719V19.115ZM134.662,64.6h16.309V56.24H134.662V64.6Zm51.795-7.949V64.6h6.065l-6.065-7.949Zm-1.065-1.311L178.917,46.9h-.983v8.441Zm8.113-14.26-6.31-6.065,6.884,4.835-.574,1.229ZM176.95,27.884,169,22.475l-.246.574,7.212,6.884.983-2.049Zm14.506,17.128-7.13-7.048,1.721-3.278,7.13,7.048-1.721,3.278ZM158.265,17.968,159.33,16l-5.655-4.016,4.589,5.983Zm15.571,15.9-7.212-6.884,1.721-3.278,7.212,6.884-1.721,3.278Zm15.571,15.079-7.13-7.048L184,38.62l7.13,7.048-1.721,3.278ZM165.969,28.13l.246-.574,7.212,6.884-.983,1.967-6.474-8.277ZM187.359,52.8l1.721-3.278-7.13-7.048-1.721,3.278,7.13,7.048Zm-.328.656L180.8,47.471l5.573,7.212.656-1.229Zm10.654-11.228,4.753,4.589.492-.983-5.245-3.606ZM185.31,33.785l-7.622-5.245-.082.246,6.884,6.638.82-1.639Zm15.079,16.964-7.212-6.966L194.9,40.5l7.212,6.966-1.721,3.278ZM168.017,21.983l-7.868-5.491-.492.9,7.13,6.884,1.229-2.295Zm14.424,17.374-6.884-6.638,1.721-3.278,6.884,6.638-1.721,3.278ZM198.34,54.6l1.721-3.278-7.212-6.966-1.721,3.278L198.34,54.6Zm-39.42-35.732.492-.82,7.13,6.884-1.147,2.213-6.474-8.277Zm21.472,24.422,1.721-3.278-6.884-6.638-1.721,3.278,6.884,6.638Zm15.9,15.243,1.721-3.278L190.8,48.29l-1.721,3.278,7.212,6.966ZM173.1,37.391l6.147,8.031.82-1.557-6.884-6.638-.082.164Zm21.144,25.078L187.031,55.5l1.721-3.278,7.212,6.966-1.721,3.278Zm-.328.574-4.262-4.1,3.852,5Z" transform="translate(0 0)" fill="#fff"/>
    <path id="Path_58" data-name="Path 58" d="M169.323,85.62l-.246.656a1.334,1.334,0,0,1-.246.492,5.574,5.574,0,0,1-1.065.328,2.647,2.647,0,0,0-1.393.82c-.246.328-.328.656-.492.9a3.636,3.636,0,0,0-.164,1.065V115.2a1.394,1.394,0,0,1-.082.574c0,.164-.082.246-.246.41a1.431,1.431,0,0,1-.983.328h-2.131a1.6,1.6,0,0,1-.574-.082l-.492-.246a7.2,7.2,0,0,1-.574-.656L142.524,92.749v18.276a10.01,10.01,0,0,0,.082,1.8,1.138,1.138,0,0,0,.41.82,4.974,4.974,0,0,0,2.295.9,1.293,1.293,0,0,1,.656.246v.246a.62.62,0,0,1-.082.328l-.164.492c0,.082-.082.164-.082.246s-.082.164-.164.246a1.184,1.184,0,0,1-.574.164h-8.359c-.328,0-.574-.082-.656-.246q-.123-.123,0-.492l.328-.9c0-.082.082-.164.246-.328a10.683,10.683,0,0,0,1.065-.246,3.811,3.811,0,0,0,.738-.246,4.007,4.007,0,0,0,.983-1.229,4.336,4.336,0,0,0,.164-1.639V89.8l-.9-.9a5.741,5.741,0,0,0-.82-.656c-.246-.164-.738-.41-1.393-.738a10.147,10.147,0,0,1-1.8-.9c-.082-.164,0-.328.082-.656l.246-.492a4.851,4.851,0,0,1,.328-.492c.082-.082.328-.082.656-.082h7.458a3.608,3.608,0,0,1,.819.164,1.474,1.474,0,0,1,.738.492c.082.082.41.492.983,1.147l17.046,21.226V89.717c0-.492-.082-.9-.082-1.229a1.545,1.545,0,0,0-.328-.738,4.775,4.775,0,0,0-2.131-.9c-.492-.164-.738-.246-.738-.328-.082-.082,0-.328.082-.574l.164-.492c0-.246.164-.328.246-.492a1.184,1.184,0,0,1,.574-.164h8.441a.426.426,0,0,1,.328.164,2.306,2.306,0,0,0-.082.656Z" transform="translate(-21.63 -13.481)" fill="#fff"/>
    <path id="Path_59" data-name="Path 59" d="M215.772,85.592l-.328.9a.426.426,0,0,1-.164.328c-.492.246-.82.41-1.229.656a3.639,3.639,0,0,0-.9.656,5.109,5.109,0,0,0-.738.983c-.164.41-.41.82-.574,1.311l-10.49,25.324c-.082.082-.082.246-.164.328s-.164.246-.328.41a.93.93,0,0,1-.656.246h-2.377a.739.739,0,0,1-.41-.082,1.013,1.013,0,0,0-.246-.164,1.132,1.132,0,0,1-.246-.328c0-.082-.082-.246-.082-.328L187.5,91.41c-.41-1.065-.738-1.8-.983-2.377-.246-.492-.41-.82-.574-.9a3.079,3.079,0,0,0-1.311-.738,8.41,8.41,0,0,0-1.147-.328.41.41,0,0,1,0-.492l.328-1.065.246-.246c.082-.082.328-.082.574-.082h11.392c.082,0,.164.082.246.164a.366.366,0,0,1,0,.41l-.246.738c0,.164-.082.246-.082.328l-.164.164a8.641,8.641,0,0,0-1.065.656,1.622,1.622,0,0,0-.9,1.065,1.04,1.04,0,0,0-.082.492,3.607,3.607,0,0,0,.164.82c.082.246.246.574.328.9L201.1,109.6l7.868-19.423.246-.738a2.269,2.269,0,0,0,.082-.738,1.223,1.223,0,0,0-.246-.82,4.156,4.156,0,0,0-1.311-.738c-.492-.164-.738-.246-.738-.41a.366.366,0,0,1,0-.41l.328-.82c.082-.082.082-.246.164-.246a1.059,1.059,0,0,1,.656-.164H215.2c.328,0,.574.082.656.246-.082,0-.082.082-.082.246Z" transform="translate(-30.462 -13.535)" fill="#fff"/>
    <path id="Path_60" data-name="Path 60" d="M253.551,93.277a8.947,8.947,0,0,1-3.2,7.048,11.85,11.85,0,0,1-7.7,2.623H240.6l-.492-1.065a1.165,1.165,0,0,1-.164-.492c-.082-.164,0-.246.082-.246a7.424,7.424,0,0,0,2.623-.492,6.313,6.313,0,0,0,2.868-2.131,7.792,7.792,0,0,0,1.393-4.753,6.419,6.419,0,0,0-1.475-4.262,4.7,4.7,0,0,0-3.852-1.8h-3.934v23.685a7.528,7.528,0,0,0,.082,1.475,1.619,1.619,0,0,0,.492.9,5.272,5.272,0,0,0,2.131.9c.41.082.656.246.656.328s.082.164.082.246a.493.493,0,0,1-.082.328l-.164.492a1.334,1.334,0,0,1-.246.492,1.27,1.27,0,0,1-.656.164H228.228c-.164-.082-.246-.082-.246-.246a.286.286,0,0,0-.082-.164v-.246l.328-.9c0-.082,0-.082.082-.164a.286.286,0,0,1,.164-.082,5.73,5.73,0,0,1,.9-.328q.861-.246.983-.492a2.18,2.18,0,0,0,.983-1.229,12.42,12.42,0,0,0,.164-2.295V89.917a3.362,3.362,0,0,0-.082-.9,1.679,1.679,0,0,0-.574-1.147,2.848,2.848,0,0,0-1.229-.656c-1.065-.328-1.557-.492-1.557-.574a.286.286,0,0,0-.082-.164,1.1,1.1,0,0,1,.082-.41l.164-.492a1.045,1.045,0,0,1,.328-.492.614.614,0,0,1,.41-.082h13.44c3.77,0,6.638.738,8.523,2.131a7.468,7.468,0,0,1,2.622,6.147Z" transform="translate(-38.493 -13.517)" fill="#fff"/>
    <path id="Path_61" data-name="Path 61" d="M259.341,117.659a2.732,2.732,0,0,0-.9-1.8,2.465,2.465,0,0,0-1.8-.656,3.094,3.094,0,0,0-2.213.82,2.265,2.265,0,0,0-.983,1.8,5.056,5.056,0,0,0,.164,1.475,19.671,19.671,0,0,1,.328,2.377,9.2,9.2,0,0,1-.984,3.77,10.8,10.8,0,0,1-2.049,3.278l1.639,1.311,4.016-5.655a19.342,19.342,0,0,0,1.721-2.95,7.416,7.416,0,0,0,1.065-3.36c0-.246,0-.328,0-.41Z" transform="translate(-42.643 -18.967)" fill="#fff"/>
    <path id="Path_62" data-name="Path 62" d="M288.958,85.6l-.246.656a1.334,1.334,0,0,1-.246.492,2.574,2.574,0,0,1-.983.328,2.795,2.795,0,0,0-2.131,2.868v21.144a8.486,8.486,0,0,0,.082,1.639,1.38,1.38,0,0,0,.492.9,3.942,3.942,0,0,0,2.213.9,1.8,1.8,0,0,1,.656.246v.246a.492.492,0,0,1-.082.328l-.164.492a1.334,1.334,0,0,1-.246.492,1.059,1.059,0,0,1-.656.164h-11.31a1.059,1.059,0,0,1-.656-.164.3.3,0,0,1-.082-.246v-.246l.328-.9a1.132,1.132,0,0,1,.246-.328s.246-.082.82-.246.9-.246.983-.41a3.246,3.246,0,0,0,.984-1.229,5.073,5.073,0,0,0,.164-1.721V89.535a4.718,4.718,0,0,0-.082-1.229,1.3,1.3,0,0,0-.492-.738,6.28,6.28,0,0,0-2.131-.82c-.41-.082-.656-.164-.738-.328v-.246a1.666,1.666,0,0,0,.082-.41l.164-.492a.753.753,0,0,1,.328-.492.615.615,0,0,1,.41-.082h11.8a.217.217,0,0,1,.246.246.921.921,0,0,1,.246.656Z" transform="translate(-47.101 -13.463)" fill="#fff"/>
    <path id="Path_63" data-name="Path 63" d="M321.833,117.2l-.246.738c-.082.082-.164.164-.164.246-.164.082-.246.164-.41.164H310.359a.807.807,0,0,1-.656-.246v-.41l.246-.738a.866.866,0,0,1,.492-.574,4.113,4.113,0,0,0,1.557-.656,1.475,1.475,0,0,0,.492-.738,4.689,4.689,0,0,0,.082-1.147v-9.589a7.743,7.743,0,0,0-.574-3.36,2.562,2.562,0,0,0-2.459-1.639c-2.213,0-3.852,1.229-5,3.688a17.27,17.27,0,0,0-1.393,7.294V114a2.249,2.249,0,0,0,.164,1.065,1.193,1.193,0,0,0,.492.738,5.261,5.261,0,0,0,1.311.574c.656.164.984.328.984.574v.164l-.328.82c-.082.082-.164.164-.164.246a.807.807,0,0,1-.656.246H294.378c-.246,0-.492-.082-.492-.164a.366.366,0,0,1,0-.41l.246-.82a1.36,1.36,0,0,1,.9-.656,4.38,4.38,0,0,0,1.311-.492,2.943,2.943,0,0,0,.574-.819,5.707,5.707,0,0,0,.164-1.311V100.235a2.3,2.3,0,0,0-.082-.9,1.737,1.737,0,0,0-.246-.574,2.5,2.5,0,0,0-1.557-.738c-.82-.164-1.229-.41-1.065-.738l.328-.82c.082-.164.164-.246.246-.41a1.27,1.27,0,0,1,.656-.164h6.966a1.544,1.544,0,0,1,.656.164.426.426,0,0,1,.164.328c0,.164.082.246.082.492v3.688a6.755,6.755,0,0,1,1.065-1.393,14.26,14.26,0,0,1,3.032-2.459,10.447,10.447,0,0,1,4.835-1.311,6.046,6.046,0,0,1,5.081,2.131,7.713,7.713,0,0,1,1.393,4.835v11.555c.082.9.246,1.557.656,1.8a4.008,4.008,0,0,0,1.557.656c.738.164,1.065.328,1.065.574a.359.359,0,0,1-.082.246Z" transform="translate(-50.39 -15.393)" fill="#fff"/>
    <path id="Path_64" data-name="Path 64" d="M349.133,113.776v.492c-.082.164-.164.246-.164.328l-.819,1.721-.492.983a2.86,2.86,0,0,1-.492.738,9.1,9.1,0,0,1-2.295.738,17.814,17.814,0,0,1-3.278.41c-3.934,0-6.966-1.229-9.179-3.606a12.168,12.168,0,0,1-3.114-8.687,10.684,10.684,0,0,1,3.114-7.868c2.377-2.377,5.737-3.524,10.162-3.524a18.411,18.411,0,0,1,3.36.328c1.639.246,2.54.656,2.7,1.065.082.082.082.246.164.328a3.552,3.552,0,0,1,.082.41v3.524a.3.3,0,0,1-.082.246c0,.082-.082.082-.082.164a.286.286,0,0,1-.164.082l-.574.328c-.164.082-.246.082-.246.164a.154.154,0,0,1-.246,0,7.767,7.767,0,0,0-1.967-2.95,4.456,4.456,0,0,0-3.2-1.229,5.177,5.177,0,0,0-4.753,2.868,10.853,10.853,0,0,0-1.557,5.983,12.082,12.082,0,0,0,1.475,6.229,5.566,5.566,0,0,0,5.081,2.95,6.273,6.273,0,0,0,3.2-.9c.82-.656,1.639-1.311,2.459-2.049a.493.493,0,0,1,.328.082l.574.328c-.164.082-.082.164,0,.328Z" transform="translate(-56.791 -15.411)" fill="#fff"/>
    <path id="Path_65" data-name="Path 65" d="M362.1,119.75a2.8,2.8,0,0,1-.9,2.131,2.976,2.976,0,0,1-2.131.9,2.519,2.519,0,0,1-2.049-.9,2.9,2.9,0,0,1-.82-2.131,2.718,2.718,0,0,1,.82-2.049,2.793,2.793,0,0,1,2.049-.9,2.976,2.976,0,0,1,2.131.9A2.793,2.793,0,0,1,362.1,119.75Z" transform="translate(-61.646 -19.255)" fill="#fff"/>
  </g>
</svg>
